<svg width="512" height="512" viewBox="0 0 512 512" fill="none" xmlns="http://www.w3.org/2000/svg">
<path d="M243.718 67.7944C243.718 73.1859 245.476 80.4528 248.875 84.8481C246.062 73.772 246.473 53.7295 257.607 47.6933C257.607 47.6933 256.552 49.9202 257.138 54.4913C257.373 56.3081 258.779 57.5973 260.42 58.535C260.225 57.9099 260.03 57.2066 259.834 56.4253C258.369 50.2133 263.937 44.4701 263.937 44.4701C263.937 44.4701 263.937 47.5761 266.339 51.8542C267.043 53.1435 268.215 54.0225 269.504 54.6085C269.348 54.3351 269.23 54.042 269.152 53.7295C267.98 49.7444 272.668 45.0561 272.668 45.0561C272.668 45.0561 272.961 49.7444 275.95 52.4402C278.88 55.0774 283.803 55.5462 283.803 55.5462C283.803 55.5462 285.385 50.2133 292.359 44.5873C299.275 38.9613 312.46 41.7743 321.603 38.5511C330.803 35.2693 339.828 33.8042 350.729 36.1484C361.688 38.5511 372.471 35.1521 383.547 39.1372C390.638 41.6571 395.561 46.2868 398.198 49.2756C401.538 45.7594 402.652 41.9501 402.652 41.9501C402.652 41.9501 404.117 46.6384 403.531 52.7332C403.179 56.3081 402.417 61.055 401.831 64.3368C404.586 63.3991 408.395 61.5238 408.395 61.5238C408.395 61.5238 408.395 64.3368 407.75 67.7944C410.387 66.0363 412.849 64.1024 412.849 64.1024C412.849 64.1024 412.849 67.3842 413.142 73.7134C413.259 76.878 412.731 79.691 412.087 81.7421L412.497 81.5663C415.603 80.1012 419.705 74.7682 419.705 74.7682C419.705 74.7682 419.764 79.3979 419.061 82.5039C418.299 85.6099 416.013 89.5364 416.013 89.5364C428.906 116.201 406.988 160.037 404 187.932C386.36 171.582 390.638 160.095 385.481 141.752C378.272 116.084 354.948 113.388 328.166 126.808C285.385 148.199 326.467 109.755 286.792 116.611C300.388 107.586 343.931 93.6386 360.34 90.474C326.35 96.2172 300.036 101.023 269.035 116.494C251.161 110.224 237.096 85.3169 243.718 67.7944V67.7944Z" fill="#13181E"/>
<path d="M348.62 147.671C348.62 147.671 340.65 171.113 349.91 187.229C359.11 203.286 353.309 210.846 356.532 216.179C359.696 221.512 345.866 243.84 322.424 248.353C299.042 252.865 289.665 241.262 288.376 237.101C287.086 232.998 291.599 226.962 291.599 226.962C291.599 226.962 293.474 231.826 297.635 229.658C301.737 227.548 298.338 215.242 292.771 212.311C287.204 209.323 279.409 209.44 275.483 205.924C271.615 202.349 271.732 193.851 277.241 196.781C282.808 199.77 286.5 199.067 290.017 200.239C293.591 201.411 294.529 207.564 299.862 212.429C305.195 217.234 307.187 218.816 307.187 218.816C307.187 218.816 307.305 212.546 311.7 211.96C316.037 211.315 314.865 209.323 318.322 206.627C321.721 203.872 322.073 210.26 328.343 201.763C334.614 193.265 337.837 192.562 338.072 172.93C338.306 153.297 345.397 148.785 348.62 147.671V147.671Z" fill="#13181E"/>
<path d="M336.898 113.622C358.699 102.722 387.356 96.3343 411.735 99.2644C411.735 99.2644 370.595 101.609 336.898 113.622ZM275.071 75.0025C300.447 63.985 335.082 56.2493 365.555 57.6558C365.555 57.6558 315.801 60.4688 275.071 75.0025Z" fill="white"/>
<path fill-rule="evenodd" clip-rule="evenodd" d="M44.5837 397.793C41.4582 399.356 37.6489 400.508 33.156 401.25C31.0853 401.602 28.7997 401.778 26.2993 401.778C23.7989 401.739 21.4743 401.309 19.3255 400.489C17.1767 399.629 15.4186 398.418 14.0511 396.855C12.6837 395.253 12 392.987 12 390.057C12 386.775 13.1135 383.747 15.3404 380.973C17.5674 378.2 20.2436 375.777 23.3691 373.707C26.4556 371.636 29.7179 369.956 33.156 368.667C36.6331 367.416 39.661 366.576 42.2395 366.147C46.1855 365.483 49.4673 365.19 52.085 365.268C54.6635 365.346 56.8123 365.502 58.5314 365.737C60.2504 365.971 61.5006 366.264 62.282 366.616C63.0634 367.006 63.6299 367.182 63.9815 367.143C64.841 365.971 65.7787 364.428 66.7945 362.513C67.654 360.99 68.7675 359.036 70.1349 356.653C71.5414 354.27 73.1823 351.281 75.0576 347.687C65.0559 354.367 56.0114 358.391 47.9241 359.759C39.4852 361.165 33.3122 359.739 29.4053 355.481C25.5375 351.222 23.3496 344.991 22.8417 336.786C22.998 325.886 25.5375 315.454 30.4602 305.492C35.3829 295.529 41.0284 286.836 47.3967 279.413C42.3958 277.811 38.7819 275.916 36.555 273.729C34.289 271.502 33.156 269.099 33.156 266.52C33.156 263.942 33.8592 261.5 35.2657 259.195C35.7736 259.625 36.7112 260.445 38.0787 261.656C39.4852 262.906 41.1261 264.157 43.0014 265.407C44.9158 266.618 46.9474 267.614 49.0962 268.396C51.245 269.138 53.4329 269.314 55.6598 268.923C57.7305 266.345 60.3676 263.278 63.5713 259.722C66.775 256.167 70.5256 252.709 74.8232 249.349C79.1208 245.95 83.8091 242.923 88.8881 240.266C94.0062 237.57 99.4954 235.734 105.356 234.757C110.005 233.976 114.01 234.249 117.37 235.578C120.729 236.945 122.409 239.953 122.409 244.603C122.409 250.111 120.729 254.956 117.37 259.136C114.01 263.317 109.79 266.911 104.711 269.919C99.5931 272.928 94.2015 275.35 88.5365 277.186C82.8324 278.983 77.6557 280.273 73.0065 281.054C68.5136 281.796 64.8997 282.148 62.1648 282.109C56.7733 287.325 52.378 292.54 48.979 297.639C45.5213 302.855 42.767 307.719 40.833 312.29C38.8405 316.861 37.434 320.963 36.6722 324.655C35.9103 328.347 35.5001 331.277 35.5001 333.563C35.5001 336.493 35.7931 339.013 36.4378 341.064C37.0238 343.135 37.7466 344.776 38.6061 345.987C39.4852 347.569 40.5986 348.917 41.9465 349.855C45.0721 351.769 48.7836 352.355 53.0812 351.613C59.4886 350.558 64.9192 348.37 69.3731 345.049C73.866 341.689 77.5385 337.88 80.3906 333.622C83.2426 329.363 85.3133 325.007 86.6026 320.553C87.8919 316.099 88.5365 312.231 88.5365 308.949C88.5365 305.355 88.3216 302.777 87.8919 301.214C87.4621 299.651 86.9347 298.557 86.3096 297.932C85.7235 297.346 85.2156 296.975 84.7859 296.818C84.3561 296.623 84.1412 296.096 84.1412 295.236C84.1412 294.377 84.571 293.869 85.4305 293.712C87.1495 293.439 88.8295 293.771 90.4704 294.709C92.1113 295.607 93.6155 296.936 94.9829 298.694C96.3503 300.452 97.4833 302.464 98.3819 304.73C99.2414 306.996 99.6712 309.418 99.6712 311.997C99.6712 318.053 98.4991 324.46 96.155 331.219C93.8108 338.017 91.2323 344.17 88.4193 349.796C85.5672 355.383 82.891 360.052 80.3906 363.803C77.8706 367.495 76.5227 369.429 76.3469 369.429C78.105 369.858 80.6641 370.21 84.024 370.483C87.384 370.796 91.1346 371.03 95.2759 371.187C99.3782 371.382 103.813 371.382 108.579 371.187C113.306 370.991 117.917 370.522 122.409 369.78C123.425 369.585 126.316 368.803 131.083 367.436C135.81 366.03 140.987 364.037 146.613 361.458C152.2 358.88 157.415 355.754 162.26 352.082C167.066 348.448 170.152 344.19 171.519 339.306C171.519 338.798 171.793 338.486 172.34 338.369C173.004 338.095 173.766 339.13 174.625 341.475C175.485 343.858 175.915 346.339 175.915 348.917C175.915 350.636 175.661 352.394 175.153 354.192V354.485C175.153 354.992 174.43 356.399 172.985 358.704C171.5 361.009 168.96 363.549 165.366 366.323C161.733 369.096 156.888 371.851 150.832 374.586C144.816 377.321 137.314 379.43 128.328 380.915C120.944 382.165 112.72 382.517 103.656 381.97C94.5922 381.423 83.4184 380.016 70.1349 377.75C66.5406 381.97 62.7509 385.838 58.7658 389.354C54.8198 392.87 50.0924 395.683 44.5837 397.793V397.793ZM114.381 245.423C112.505 244.681 110.357 244.524 107.934 244.954C105.512 245.345 102.875 246.263 100.023 247.709C97.1708 249.115 94.4555 250.736 91.8769 252.573C91.8769 252.729 91.3299 253.198 90.236 253.979C89.103 254.761 87.5793 255.874 85.6649 257.32C83.7896 258.765 81.6408 260.601 79.2185 262.828C76.7962 265.016 74.2958 267.634 71.7172 270.681C73.4363 270.72 75.1162 270.603 76.7571 270.33C78.3981 270.056 80.078 269.783 81.7971 269.509C83.5161 269.197 85.2938 268.904 87.13 268.63C88.9272 268.318 90.7634 267.829 92.6388 267.165C92.6388 267.165 93.889 266.735 96.3894 265.876C98.8898 265.016 101.566 263.785 104.418 262.184C107.27 260.621 109.907 258.687 112.33 256.382C114.752 254.077 115.963 251.537 115.963 248.763C115.963 248.255 115.748 247.572 115.318 246.712C114.889 245.814 114.576 245.384 114.381 245.423V245.423ZM453.169 269.099C457.506 262.887 461.823 257.085 466.12 251.694C469.754 247.122 473.544 242.473 477.49 237.746C481.475 233.058 485.01 229.405 488.097 226.787C490.675 227.568 492.922 228.408 494.836 229.307C496.399 230.088 497.61 231.143 498.47 232.472C499.329 233.761 499.329 235.265 498.47 236.984C497.063 239.445 494.993 243.274 492.258 248.47C489.484 253.667 486.983 258.96 484.756 264.352C484.405 265.094 483.877 266.384 483.174 268.22C481.807 271.384 480.732 274.061 479.951 276.249C479.17 278.475 478.955 279.726 479.306 279.999C479.658 279.96 480.01 279.823 480.361 279.589C481.221 279.081 482.471 278.085 484.112 276.6C485.753 275.116 487.394 273.416 489.035 271.502C490.675 269.626 492.258 267.692 493.781 265.7C495.344 263.707 496.555 262.027 497.415 260.66C497.415 260.504 497.591 260.308 497.942 260.074C498.45 259.488 498.958 259.312 499.466 259.546C499.818 259.664 500.208 260.074 500.638 260.777C501.068 261.48 500.423 262.926 498.704 265.114C495.774 269.216 492.883 272.85 490.031 276.014C487.218 279.179 485.284 281.269 484.229 282.285C481.807 284.434 479.834 285.762 478.31 286.27C476.747 286.778 475.536 287.012 474.677 286.973C473.973 286.934 473.114 286.817 472.098 286.621C469.676 285.84 468.328 284.082 468.054 281.347C467.82 278.651 468.133 275.584 468.992 272.146C469.656 268.591 470.906 264.254 472.743 259.136C474.54 254.018 477.157 247.962 480.596 240.969C476.65 245.97 472.684 251.303 468.699 256.968C465.261 261.852 461.647 267.321 457.857 273.377C454.068 279.433 450.532 285.586 447.25 291.837C444.672 292.111 442.425 291.876 440.511 291.134C438.948 290.548 437.737 289.259 436.877 287.266C436.526 286.367 436.35 285.293 436.35 284.043C434.982 285.801 433.752 287.325 432.658 288.614C430.157 291.427 427.989 293.556 426.153 295.002C424.356 296.408 422.89 297.287 421.757 297.639C420.664 298.03 419.765 298.284 419.062 298.401C416.131 298.87 414.061 298.303 412.85 296.701C411.639 295.099 411.033 293.087 411.033 290.665C411.033 287.383 411.717 283.691 413.084 279.589C414.491 275.487 415.878 271.853 417.245 268.689C415.331 271.228 413.123 274.139 410.623 277.421C408.122 280.663 405.622 283.828 403.121 286.914C400.66 290.04 398.433 292.833 396.441 295.295C394.448 297.795 393.198 299.436 392.69 300.217C392.182 300.999 391.225 301.507 389.818 301.741C387.24 302.171 384.661 301.741 382.083 300.452C379.504 299.163 378.215 296.701 378.215 293.068V293.009C377.59 293.712 376.984 294.396 376.398 295.06C373.468 298.225 371.573 300.296 370.714 301.272C368.291 303.421 366.299 304.75 364.736 305.257C363.173 305.765 361.962 306.019 361.103 306.019H360.868L358.524 305.668C356.102 304.847 354.773 303.089 354.539 300.393C354.265 297.658 354.558 294.592 355.418 291.193C356.121 287.637 357.371 283.281 359.169 278.124C361.005 273.006 363.642 266.97 367.08 260.015C363.095 264.977 359.13 270.291 355.184 275.956C351.745 280.839 348.073 286.328 344.166 292.423C340.298 298.518 336.723 304.671 333.442 310.883C330.863 311.157 328.617 310.942 326.702 310.239C325.178 309.614 323.987 308.305 323.127 306.312C322.268 304.281 322.522 301.175 323.889 296.994C324.045 296.447 324.299 295.666 324.651 294.65C325.003 293.634 325.393 292.501 325.823 291.251C326.253 289.962 326.683 288.809 327.112 287.794C327.542 286.778 327.835 285.996 327.991 285.449C329.906 279.589 332.856 272.791 336.841 265.055C332.856 270.056 328.87 275.389 324.885 281.054C321.447 285.938 317.794 291.407 313.927 297.463C310.059 303.558 306.484 309.731 303.202 315.982C300.623 316.216 298.377 315.982 296.463 315.279C294.9 314.693 293.689 313.384 292.829 311.352C292.282 310.063 292.204 308.305 292.595 306.078C290.563 308.5 288.707 310.708 287.027 312.7C283.824 316.529 281.538 318.736 280.171 319.322C276.225 321.354 272.337 322.682 268.509 323.307C263.508 324.167 259.425 323.6 256.26 321.608C253.057 319.654 251.455 317.564 251.455 315.337C251.299 314.478 251.181 313.716 251.103 313.052C251.025 312.661 250.986 312.251 250.986 311.821C249.306 314.009 247.782 315.845 246.415 317.33C243.915 320.065 241.805 322.174 240.086 323.659C238.367 325.183 236.941 326.12 235.808 326.472C234.675 326.824 233.776 327.058 233.112 327.175C229.986 327.683 227.779 327.156 226.49 325.593C225.2 323.991 224.556 321.979 224.556 319.557C224.556 318.346 224.653 317.076 224.849 315.747C223.052 318.053 221.45 320.006 220.043 321.608C217.543 324.46 215.433 326.589 213.714 327.996C211.995 329.402 210.569 330.32 209.436 330.75C208.303 331.18 207.307 331.473 206.447 331.629C203.361 332.137 201.212 331.59 200.001 329.988C198.79 328.386 198.184 326.374 198.184 323.952C198.184 323.639 198.184 323.307 198.184 322.956C197.559 323.737 196.914 324.479 196.25 325.183C193.398 328.347 191.464 330.438 190.448 331.453C188.026 333.602 186.034 334.93 184.471 335.438C182.908 335.946 181.697 336.2 180.837 336.2C180.173 336.122 179.314 336.005 178.259 335.849C175.837 335.028 174.508 333.27 174.274 330.574C174 327.839 174.293 324.772 175.153 321.373C175.856 317.818 177.106 313.462 178.903 308.305C180.74 303.187 183.377 297.151 186.815 290.196C182.83 295.158 178.864 300.471 174.918 306.136C171.48 311.02 167.847 316.509 164.018 322.604C160.228 328.66 156.712 334.794 153.469 341.006C150.852 341.279 148.605 341.064 146.73 340.361C145.167 339.736 143.956 338.427 143.097 336.435C142.511 335.028 142.413 333.094 142.804 330.633C140.577 333.29 138.565 335.712 136.767 337.9C133.564 341.689 131.278 343.877 129.911 344.463C125.926 346.495 122.038 347.823 118.249 348.448C113.248 349.308 109.165 348.761 106 346.807C102.797 344.815 101.195 342.705 101.195 340.478C101.039 339.658 100.902 338.896 100.785 338.193C100.707 337.529 100.667 336.767 100.667 335.907C100.667 333.133 101.058 330.301 101.84 327.41C102.621 324.519 103.617 321.764 104.828 319.147C106.039 316.568 107.329 314.165 108.696 311.938C110.064 309.711 111.353 307.816 112.564 306.254C114.83 303.441 116.998 300.96 119.069 298.811C121.14 296.662 122.859 294.963 124.226 293.712C125.945 292.189 127.488 290.978 128.856 290.079C131.278 288.438 133.271 287.5 134.833 287.266C136.201 287.032 137.627 287.129 139.112 287.559C140.557 288.028 141.925 288.673 143.214 289.493C144.503 290.313 145.538 291.212 146.32 292.189C147.101 293.166 147.492 294.005 147.492 294.709C147.492 298.498 146.535 302.19 144.62 305.785C142.745 309.379 140.381 312.622 137.529 315.513C134.677 318.404 131.708 320.787 128.621 322.663C125.496 324.577 122.644 325.749 120.065 326.179C118.854 326.374 117.995 326.433 117.487 326.355C116.119 330.027 115.436 333.172 115.436 335.79C115.436 337.822 115.729 339.306 116.315 340.244C116.94 341.182 117.584 341.807 118.249 342.119C118.952 342.432 119.655 342.49 120.358 342.295C121.023 342.1 121.53 341.982 121.882 341.943C124.304 341.514 126.805 340.185 129.383 337.958C131.962 335.692 134.423 333.329 136.767 330.867C139.072 328.445 141.182 326.159 143.097 324.011C143.956 323.073 144.738 322.311 145.441 321.725C146.769 318.131 148.41 314.439 150.363 310.649C153.294 304.906 155.696 299.456 157.572 294.299C157.767 293.595 158.158 292.462 158.744 290.899C159.33 289.337 159.896 287.774 160.443 286.211C160.951 284.648 161.342 283.379 161.615 282.402C161.85 281.386 161.889 280.976 161.733 281.171V280.702C161.733 280.351 161.987 280.136 162.494 280.058C162.846 279.823 163.198 279.765 163.549 279.882C163.862 279.999 164.194 280.116 164.546 280.234C164.897 280.312 165.171 280.429 165.366 280.585C165.522 280.741 165.776 280.878 166.128 280.995C168.199 282.011 170.269 283.554 172.34 285.625C174.411 287.696 174.84 290.294 173.629 293.419C173.434 293.81 173.18 294.455 172.867 295.353C172.516 296.291 171.383 298.381 169.468 301.624C167.398 304.906 165.425 308.129 163.549 311.294C161.635 314.458 160.248 316.802 159.388 318.326C163.686 312.075 168.003 306.254 172.34 300.862C175.934 296.291 179.724 291.661 183.709 286.973C187.655 282.246 191.191 278.593 194.316 276.014C196.895 276.796 199.141 277.616 201.056 278.475C202.579 279.257 203.771 280.312 204.631 281.64C205.49 282.968 205.49 284.473 204.631 286.153C203.263 288.653 201.192 292.501 198.419 297.698C195.684 302.894 193.183 308.168 190.917 313.521C190.605 314.302 190.097 315.611 189.394 317.447C188.026 320.612 186.952 323.288 186.17 325.476C185.389 327.664 185.174 328.914 185.526 329.226C185.877 329.148 186.209 328.992 186.522 328.758C187.421 328.289 188.671 327.312 190.273 325.827C191.914 324.343 193.554 322.643 195.195 320.729C196.68 319.01 198.106 317.271 199.473 315.513C199.708 314.732 199.962 313.95 200.235 313.169C201.642 309.223 203.029 305.668 204.396 302.503C208.537 292.501 211.936 284.394 214.593 278.182C217.289 271.931 219.457 266.696 221.098 262.477C222.739 258.218 224.146 254.624 225.318 251.694C226.529 248.724 227.838 245.482 229.244 241.965C219.75 243.567 210.823 244.974 202.462 246.185C194.101 247.396 187.167 248.47 181.658 249.408C173.531 250.775 166.401 252.319 160.267 254.038C154.173 255.757 149.738 257.867 146.964 260.367C146.457 260.797 145.734 261.539 144.796 262.594C143.819 263.61 142.901 264.45 142.042 265.114C141.182 265.778 140.362 266.032 139.58 265.876C138.838 265.758 138.467 264.918 138.467 263.356C138.467 263.199 138.506 262.242 138.584 260.484C138.662 258.765 139.385 256.89 140.752 254.858C142.159 252.788 144.62 250.678 148.137 248.529C151.692 246.419 156.829 244.798 163.549 243.665C164.565 243.47 165.64 243.294 166.773 243.137C167.906 242.942 169.156 242.805 170.523 242.727C182.4 241.594 193.261 240.559 203.107 239.621C212.913 238.644 222.485 237.375 231.823 235.812C232.174 235.07 232.604 233.722 233.112 231.768C233.62 229.776 234.225 227.686 234.929 225.498C235.593 223.31 236.237 221.356 236.863 219.637C237.449 217.879 237.917 216.883 238.269 216.649C238.777 216.57 239.637 216.824 240.848 217.41C242.059 217.957 243.309 218.68 244.598 219.579C245.888 220.516 247.06 221.669 248.115 223.036C249.13 224.404 249.638 225.869 249.638 227.432C249.638 228.291 249.462 229.229 249.111 230.245C248.798 231.221 248.466 232.1 248.115 232.882C248.779 232.765 249.931 232.472 251.572 232.003C253.213 231.573 255.03 231.143 257.022 230.713C257.452 230.635 257.901 230.538 258.37 230.42C259.034 228.623 259.659 226.943 260.245 225.38C260.441 224.834 260.695 223.837 261.007 222.392C261.359 220.985 261.75 219.54 262.179 218.055C262.609 216.609 263.039 215.34 263.469 214.246C263.898 213.152 264.289 212.488 264.641 212.253C265.149 212.175 265.852 212.312 266.751 212.663C268.47 213.406 270.443 214.676 272.669 216.473C274.896 218.231 276.01 220.399 276.01 222.978C276.01 224.189 275.756 225.361 275.248 226.494C271.615 236.066 267.649 245.56 263.351 254.975C259.054 264.43 254.659 274.002 250.166 283.691C250.166 283.887 249.443 285.703 247.997 289.141C246.513 292.579 244.911 296.467 243.192 300.804C241.473 305.14 239.871 309.203 238.386 312.993C236.941 316.744 236.218 319.049 236.218 319.908C236.218 320.26 236.296 320.436 236.452 320.436C237.312 320.279 238.738 319.127 240.73 316.978C242.723 314.829 244.755 312.505 246.825 310.004C248.505 307.973 250.107 306.058 251.631 304.261C251.787 303.597 251.943 302.933 252.1 302.269C252.881 299.377 253.877 296.623 255.088 294.005C256.299 291.388 257.589 288.985 258.956 286.797C260.324 284.57 261.613 282.656 262.824 281.054C265.09 278.28 267.258 275.819 269.329 273.67C271.4 271.521 273.119 269.802 274.486 268.513C276.205 267.028 277.748 265.817 279.116 264.879C281.538 263.278 283.531 262.34 285.093 262.066C286.461 261.871 287.887 261.988 289.372 262.418C290.817 262.848 292.185 263.473 293.474 264.293C294.763 265.114 295.798 266.032 296.58 267.048C297.361 268.024 297.752 268.864 297.752 269.568C297.752 273.357 296.814 277.049 294.939 280.644C293.025 284.238 290.641 287.481 287.789 290.372C284.937 293.263 281.968 295.646 278.881 297.522C275.795 299.436 272.943 300.608 270.325 301.038C269.114 301.233 268.255 301.292 267.747 301.214C266.379 304.886 265.696 308.012 265.696 310.59C265.696 312.661 265.989 314.165 266.575 315.103C267.2 316.04 267.844 316.666 268.509 316.978C269.212 317.291 269.915 317.349 270.618 317.154C271.283 316.959 271.79 316.822 272.142 316.744C274.564 316.353 277.065 315.044 279.643 312.817C282.222 310.551 284.683 308.188 287.027 305.726C289.372 303.265 291.481 300.979 293.357 298.87C293.982 298.127 294.587 297.522 295.173 297.053C296.463 293.341 298.143 289.513 300.213 285.567C303.222 279.784 305.683 274.334 307.597 269.216C308.457 266.794 309.277 264.586 310.059 262.594C310.84 260.562 311.387 258.394 311.7 256.089V255.561C311.7 255.21 311.973 254.995 312.52 254.917C312.676 254.878 313.36 254.936 314.571 255.093C315.079 255.522 315.509 255.796 315.86 255.913C316.915 256.421 317.99 257.105 319.084 257.964C320.217 258.785 321.213 259.683 322.072 260.66C322.932 261.637 323.538 262.789 323.889 264.118C324.241 265.446 324.143 266.852 323.596 268.337C321.721 272.596 319.572 276.698 317.15 280.644C314.727 284.59 312.051 288.79 309.121 293.244C313.458 286.993 317.775 281.191 322.072 275.838C325.706 271.267 329.496 266.618 333.442 261.891C337.427 257.163 340.962 253.51 344.049 250.932C346.627 251.713 348.874 252.553 350.788 253.452C352.351 254.194 353.562 255.229 354.422 256.558C355.281 257.886 355.281 259.39 354.422 261.07C353.367 263.141 351.726 266.266 349.499 270.447C347.233 274.627 345.065 278.964 342.994 283.457C344.752 281.074 346.92 278.163 349.499 274.725C352.078 271.287 354.832 267.712 357.762 264C360.692 260.328 363.623 256.87 366.553 253.627C369.483 250.385 372.159 247.787 374.581 245.833C377.004 246.615 379.153 247.455 381.028 248.353C382.591 249.135 383.841 250.17 384.778 251.459C385.716 252.788 385.755 254.292 384.896 255.972C383.528 258.433 381.419 262.281 378.566 267.517C375.714 272.752 373.253 278.026 371.182 283.34C370.518 284.512 370.01 285.82 369.659 287.266C368.291 290.431 367.217 293.107 366.435 295.295C365.654 297.483 365.439 298.733 365.791 299.045C366.142 298.967 366.475 298.811 366.787 298.577C367.686 298.108 368.936 297.131 370.538 295.646C372.179 294.162 373.82 292.462 375.46 290.548C376.75 289.024 378.02 287.5 379.27 285.977C379.465 285.117 379.719 284.238 380.032 283.34C381.204 279.433 383.177 274.998 385.951 270.037C388.021 266.598 390.17 263.219 392.397 259.898C394.663 256.577 396.949 253.608 399.254 250.99C401.598 248.373 403.844 246.224 405.993 244.544C408.142 242.903 410.076 241.946 411.795 241.672C412.85 241.477 413.807 241.575 414.666 241.965C416.229 242.747 417.655 243.489 418.944 244.192C420.234 244.935 421.308 245.579 422.168 246.126C423.183 246.634 424.121 247.162 424.981 247.709C425.176 247.669 425.449 247.201 425.801 246.302C426.114 245.364 426.407 244.368 426.68 243.313C426.954 242.219 427.266 241.164 427.618 240.149C427.93 239.172 428.184 238.586 428.38 238.391C428.731 238.312 429.493 238.527 430.665 239.035C431.876 239.504 433.127 240.188 434.416 241.086C435.744 241.985 436.877 243.059 437.815 244.31C438.753 245.521 439.221 246.888 439.221 248.412C439.221 248.607 438.792 249.642 437.932 251.518C437.073 253.393 436.037 255.718 434.826 258.492C433.615 261.266 432.228 264.332 430.665 267.692C429.142 271.052 427.774 274.315 426.563 277.479C425.352 280.605 424.316 283.398 423.457 285.86C422.597 288.321 422.168 289.981 422.168 290.841C422.168 291.388 422.343 291.622 422.695 291.544C423.555 291.427 424.981 290.294 426.973 288.145C428.927 285.996 430.939 283.672 433.009 281.171C434.963 278.827 436.78 276.659 438.46 274.666C439.905 270.408 441.8 266.012 444.144 261.48C447.074 255.698 449.497 250.248 451.411 245.13C451.567 244.388 451.938 243.235 452.524 241.672C453.15 240.11 453.716 238.547 454.224 236.984C454.732 235.46 455.122 234.191 455.396 233.175C455.669 232.198 455.709 231.807 455.513 232.003V231.475C455.513 231.124 455.767 230.909 456.275 230.831C456.627 230.596 456.978 230.538 457.33 230.655C457.682 230.772 458.033 230.889 458.385 231.006C458.736 231.124 458.99 231.26 459.147 231.417C459.303 231.534 459.557 231.651 459.908 231.768C461.979 232.823 464.05 234.386 466.12 236.457C468.191 238.527 468.621 241.125 467.41 244.251C467.253 244.603 467 245.247 466.648 246.185C466.296 247.083 465.183 249.174 463.307 252.455C461.237 255.698 459.244 258.902 457.33 262.066C455.455 265.231 454.068 267.575 453.169 269.099V269.099ZM227.662 305.961C228.678 303.109 229.713 300.491 230.768 298.108C235.769 286.035 239.949 276.014 243.309 268.044C246.669 260.074 249.423 253.374 251.572 247.943C253.135 243.997 254.483 240.578 255.616 237.687L255.206 237.746C252.549 238.098 250.009 238.488 247.587 238.918L245.243 239.27C243.876 242.434 242.02 246.712 239.676 252.104C237.37 257.495 235.007 262.887 232.585 268.278C229.811 274.451 226.88 281.074 223.794 288.145C221.02 294.474 218.695 300.12 216.82 305.082C214.906 309.379 213.265 313.442 211.897 317.271C210.53 321.139 209.846 323.503 209.846 324.362C209.846 324.714 209.924 324.87 210.081 324.831C210.94 324.675 212.366 323.522 214.359 321.373C216.351 319.264 218.383 316.959 220.454 314.458C222.524 311.919 224.458 309.594 226.255 307.484C226.763 306.898 227.232 306.39 227.662 305.961V305.961ZM287.438 283.164C289.313 280.624 290.641 278.632 291.423 277.186C292.204 275.78 292.595 274.725 292.595 274.022C292.595 273.162 291.989 272.83 290.778 273.025C288.864 273.69 286.871 274.881 284.8 276.6C282.925 278.124 280.776 280.312 278.354 283.164C275.932 285.977 273.353 289.845 270.618 294.767L271.615 294.592C273.529 294.279 275.736 293.361 278.237 291.837C280.737 290.274 283.804 287.383 287.438 283.164V283.164ZM395.269 288.145C396.831 286.856 399.117 284.277 402.125 280.409C405.134 276.542 408.103 272.537 411.033 268.396C414.471 263.512 418.261 258.316 422.402 252.807C420.683 252.221 419.218 252.045 418.007 252.28C415.077 252.748 411.424 255.757 407.048 261.305C402.633 266.891 398.355 274.686 394.214 284.687C393.549 286.016 393.217 287.012 393.217 287.676C393.217 288.575 393.549 288.966 394.214 288.848C394.565 288.77 394.819 288.633 394.976 288.438C395.171 288.399 395.269 288.301 395.269 288.145V288.145ZM137.178 308.305C139.053 305.765 140.381 303.792 141.163 302.386C141.944 300.94 142.335 299.866 142.335 299.163C142.335 298.303 141.729 297.991 140.518 298.225C138.604 298.85 136.611 300.042 134.54 301.8C132.665 303.323 130.516 305.492 128.094 308.305C125.672 311.118 123.093 315.005 120.358 319.967L121.355 319.791C123.269 319.44 125.476 318.502 127.977 316.978C130.477 315.454 133.544 312.563 137.178 308.305V308.305ZM58.2384 375.582C55.3082 375.035 52.5147 374.781 49.858 374.82C47.2013 374.82 44.74 375.015 42.474 375.406C40.0517 375.797 37.9029 376.363 36.0275 377.106C34.1131 377.848 32.4722 378.512 31.1048 379.098C29.5421 379.88 28.1551 380.622 26.944 381.325C26.0844 382.185 25.1858 383.259 24.2482 384.548C23.3105 385.799 22.8417 387.127 22.8417 388.533C22.8417 390.252 23.6621 391.444 25.303 392.108C26.944 392.772 29.2295 392.87 32.1597 392.401C35.7541 391.776 39.9345 390.116 44.7009 387.42C49.4283 384.724 53.9407 380.778 58.2384 375.582V375.582Z" fill="#13181E"/>
<path d="M245.242 339.01C312.694 326.059 401.948 310.412 469.811 298.281C484.462 298.808 488.037 315.862 479.481 326.997L316.269 355.888C281.517 362.745 284.33 345.164 252.157 350.79C249.813 346.883 247.508 342.956 245.242 339.01V339.01ZM183.063 347.742C196.659 347.039 212.365 344.871 228.95 341.999C230.708 345.867 232.525 349.696 234.4 353.486C211.017 356.416 189.216 356.357 183.063 347.742V347.742Z" fill="#13181E"/>
<path d="M234.986 330.75C272.668 400.488 296.93 417.659 359.753 465.714C359.753 465.714 353.893 471.516 347.798 473.743C341.762 475.911 334.73 476.849 334.73 476.849C284.799 439.46 257.607 417.191 223.734 342.881C223.734 342.881 226.489 334.501 234.986 330.75V330.75Z" fill="#13181E"/>
<path d="M235.514 344.638C237.272 344.345 238.971 345.517 239.264 347.275C239.557 349.033 238.327 350.732 236.568 351.025C234.869 351.318 233.169 350.088 232.876 348.388C232.583 346.63 233.755 344.931 235.514 344.638V344.638Z" fill="white"/>
<path fill-rule="evenodd" clip-rule="evenodd" d="M438.692 332.272V329.752L440.333 329.4V316.976L438.692 317.269V314.749L443.381 313.929V315.218C443.928 314.554 444.514 314.027 445.139 313.636C445.764 313.284 446.428 313.03 447.131 312.874C448.889 312.561 450.354 312.913 451.527 313.929C452.699 314.906 453.285 316.293 453.285 318.09C453.285 319.926 452.718 321.547 451.585 322.954C450.452 324.36 448.968 325.22 447.131 325.532C446.467 325.689 445.822 325.689 445.197 325.532C444.533 325.415 443.928 325.181 443.381 324.829V328.873L445.139 328.521V331.041L438.692 332.272ZM443.322 320.024C443.322 321.039 443.654 321.84 444.318 322.426C444.982 322.973 445.803 323.149 446.78 322.954C447.795 322.758 448.616 322.27 449.241 321.489C449.905 320.668 450.237 319.75 450.237 318.734C450.237 317.679 449.905 316.859 449.241 316.273C448.577 315.726 447.756 315.55 446.78 315.746C445.803 315.902 444.982 316.39 444.318 317.211C443.654 318.031 443.322 318.969 443.322 320.024V320.024ZM423.983 323.54C423.983 321.743 424.608 320.121 425.858 318.676C427.147 317.23 428.749 316.332 430.664 315.98C432.539 315.628 434.121 315.941 435.411 316.918C436.661 317.894 437.286 319.281 437.286 321.079C437.286 322.876 436.661 324.497 435.411 325.943C434.16 327.388 432.578 328.287 430.664 328.638C428.749 328.99 427.147 328.677 425.858 327.701C424.608 326.724 423.983 325.337 423.983 323.54ZM427.089 322.954C427.089 324.009 427.421 324.829 428.085 325.415C428.788 326.001 429.648 326.197 430.664 326.001C431.64 325.845 432.48 325.337 433.184 324.478C433.848 323.657 434.18 322.719 434.18 321.665C434.18 320.571 433.848 319.731 433.184 319.145C432.519 318.598 431.679 318.402 430.664 318.559C429.648 318.754 428.788 319.281 428.085 320.141C427.421 320.961 427.089 321.899 427.089 322.954V322.954ZM410.211 315.98L408.511 316.273V313.753L413.2 312.933V321.196C413.903 320.375 414.606 319.75 415.309 319.32C415.974 318.852 416.696 318.559 417.478 318.441C418.728 318.207 419.666 318.363 420.291 318.91C420.916 319.496 421.228 320.512 421.228 321.958V327.584L422.928 327.29V329.81L416.54 330.983V328.463L418.181 328.17V323.188C418.181 322.524 418.025 322.036 417.712 321.723C417.361 321.45 416.892 321.372 416.306 321.489C415.798 321.567 415.27 321.801 414.723 322.192C414.216 322.583 413.708 323.149 413.2 323.891V329.107L414.899 328.756V331.276L408.511 332.448V329.928L410.211 329.635V315.98ZM398.197 334.382L395.97 334.792V330.572L398.314 330.162C398.627 330.826 399.096 331.295 399.721 331.569C400.346 331.842 401.108 331.901 402.006 331.744C402.553 331.666 402.983 331.451 403.296 331.1C403.647 330.787 403.823 330.416 403.823 329.986C403.823 329.635 403.686 329.381 403.413 329.224C403.178 329.107 402.612 329.049 401.713 329.049H399.721C398.392 329.049 397.416 328.814 396.791 328.345C396.166 327.877 395.853 327.154 395.853 326.177C395.814 325.044 396.205 324.067 397.025 323.247C397.806 322.426 398.861 321.879 400.19 321.606C400.932 321.489 401.577 321.469 402.124 321.547C402.71 321.625 403.198 321.821 403.589 322.133V321.313L405.874 320.903V324.712L403.413 325.181C403.218 324.556 402.866 324.126 402.358 323.891C401.889 323.657 401.284 323.598 400.541 323.716C399.994 323.833 399.545 324.028 399.193 324.302C398.842 324.614 398.666 324.946 398.666 325.298C398.666 326.001 399.447 326.353 401.01 326.353C401.088 326.353 401.147 326.353 401.186 326.353H402.592C403.999 326.353 405.054 326.587 405.757 327.056C406.421 327.564 406.753 328.306 406.753 329.283C406.753 330.416 406.343 331.412 405.523 332.272C404.663 333.131 403.55 333.698 402.182 333.971C401.479 334.089 400.815 334.108 400.19 334.03C399.526 333.952 398.881 333.776 398.256 333.503L398.197 334.382ZM389.465 325.65L389.641 325.591C389.797 324.927 390.071 324.399 390.461 324.009C390.852 323.618 391.321 323.364 391.868 323.247C392.454 323.13 392.962 323.247 393.392 323.598C393.782 323.911 393.978 324.38 393.978 325.005C393.978 325.63 393.782 326.177 393.392 326.646C393.001 327.115 392.473 327.408 391.809 327.525C391.34 327.642 390.911 327.584 390.52 327.349C390.168 327.154 389.875 326.802 389.641 326.294L389.465 326.411V333.444L391.165 333.151V335.671L384.777 336.843V334.323L386.476 334.03V326.997L384.777 327.29V324.771L389.465 323.891V325.65ZM383.019 333.62C382.667 334.909 381.964 336.003 380.909 336.902C379.854 337.761 378.545 338.328 376.983 338.601C374.951 338.992 373.33 338.718 372.118 337.781C370.907 336.843 370.302 335.417 370.302 333.503C370.302 331.666 370.907 330.045 372.118 328.638C373.369 327.193 374.971 326.294 376.924 325.943C378.877 325.591 380.44 325.943 381.612 326.997C382.784 328.013 383.37 329.576 383.37 331.686V331.979L373.349 333.854C373.466 334.753 373.838 335.397 374.463 335.788C375.088 336.14 375.947 336.218 377.041 336.022C377.705 335.905 378.311 335.69 378.858 335.378C379.366 335.026 379.756 334.635 380.03 334.206L383.019 333.62ZM373.408 331.686L380.382 330.396C380.147 329.576 379.737 329.01 379.151 328.697C378.565 328.384 377.823 328.306 376.924 328.463C376.025 328.619 375.264 328.99 374.638 329.576C374.013 330.123 373.603 330.826 373.408 331.686ZM354.303 342.469V339.949L356.002 339.656V326.001L354.303 326.294V323.774L358.991 322.895V330.807C359.538 330.182 360.124 329.674 360.749 329.283C361.413 328.892 362.097 328.638 362.8 328.521C364.559 328.209 366.024 328.541 367.196 329.517C368.368 330.533 368.954 331.94 368.954 333.737C368.954 335.573 368.368 337.195 367.196 338.601C366.063 339.968 364.598 340.828 362.8 341.18C362.058 341.297 361.374 341.297 360.749 341.18C360.085 341.023 359.499 340.73 358.991 340.301V341.59L354.303 342.469ZM358.874 335.612C358.913 336.628 359.245 337.429 359.87 338.015C360.534 338.562 361.374 338.757 362.39 338.601C363.367 338.406 364.187 337.898 364.852 337.077C365.516 336.296 365.848 335.378 365.848 334.323C365.848 333.268 365.516 332.467 364.852 331.92C364.187 331.334 363.367 331.139 362.39 331.334C361.374 331.53 360.534 332.018 359.87 332.799C359.245 333.62 358.913 334.557 358.874 335.612V335.612ZM348.56 333.209L348.736 333.151C348.892 332.487 349.165 331.959 349.556 331.569C349.947 331.178 350.416 330.924 350.963 330.807C351.549 330.69 352.056 330.807 352.486 331.158C352.877 331.471 353.072 331.94 353.072 332.565C353.072 333.19 352.877 333.737 352.486 334.206C352.096 334.675 351.568 334.987 350.904 335.143C350.435 335.222 350.005 335.143 349.615 334.909C349.263 334.714 348.97 334.362 348.736 333.854L348.56 333.971V341.004L350.259 340.711V343.231L343.871 344.403V341.883L345.571 341.59V334.557L343.871 334.85V332.33L348.56 331.451V333.209ZM340.648 342.527L342.348 342.176V344.696L337.659 345.575V344.286C337.152 344.911 336.566 345.419 335.901 345.809C335.276 346.2 334.593 346.454 333.85 346.571C332.053 346.884 330.588 346.552 329.455 345.575C328.322 344.598 327.755 343.192 327.755 341.355C327.755 339.558 328.322 337.956 329.455 336.55C330.627 335.104 332.092 334.225 333.85 333.913C334.593 333.756 335.257 333.756 335.843 333.913C336.507 334.069 337.112 334.362 337.659 334.792V333.503L342.348 332.623V335.143L340.648 335.495V342.527ZM330.803 340.828C330.803 341.883 331.115 342.684 331.74 343.231C332.405 343.778 333.245 343.973 334.26 343.817C335.276 343.621 336.116 343.114 336.78 342.293C337.445 341.512 337.777 340.594 337.777 339.539C337.738 338.484 337.386 337.683 336.722 337.136C336.058 336.55 335.237 336.355 334.26 336.55C333.245 336.745 332.405 337.234 331.74 338.015C331.115 338.835 330.803 339.773 330.803 340.828V340.828ZM311.815 350.38V347.743L313.808 347.392V333.913L311.815 334.264V331.686L318.555 330.455C320.586 330.064 322.129 330.182 323.184 330.807C324.278 331.393 324.825 332.467 324.825 334.03C324.825 335.007 324.552 335.866 324.005 336.609C323.497 337.312 322.696 337.917 321.602 338.425C322.93 338.503 323.927 338.875 324.591 339.539C325.294 340.203 325.646 341.141 325.646 342.352C325.646 344.188 325.06 345.653 323.888 346.747C322.676 347.88 320.899 348.661 318.555 349.091L311.815 350.38ZM317.148 333.327V338.249L318.555 337.956C319.453 337.8 320.156 337.448 320.664 336.902C321.172 336.394 321.426 335.769 321.426 335.026C321.426 334.206 321.192 333.639 320.723 333.327C320.215 332.975 319.492 332.877 318.555 333.034L317.148 333.327ZM317.148 340.652V346.864L318.555 346.571C319.883 346.337 320.84 345.926 321.426 345.34C322.012 344.754 322.305 343.914 322.305 342.82C322.305 341.727 322.012 340.984 321.426 340.594C320.84 340.242 319.883 340.183 318.555 340.418L317.148 340.652Z" fill="white"/>
<path fill-rule="evenodd" clip-rule="evenodd" d="M381.906 352.786C382.804 352.629 383.547 352.786 384.133 353.254C384.758 353.723 385.07 354.348 385.07 355.13V355.188L382.55 355.599C382.55 355.56 382.55 355.54 382.55 355.54C382.55 355.345 382.472 355.188 382.316 355.071C382.16 354.954 381.964 354.915 381.73 354.954L376.28 355.892C376.045 355.931 375.85 356.028 375.694 356.185C375.537 356.38 375.459 356.575 375.459 356.771C375.459 356.966 375.537 357.122 375.694 357.24C375.85 357.357 376.045 357.396 376.28 357.357C376.905 357.24 377.901 357.064 379.268 356.829C380.597 356.595 381.574 356.439 382.199 356.361C383.136 356.204 383.918 356.36 384.543 356.829C385.168 357.298 385.48 357.943 385.48 358.763C385.48 359.584 385.168 360.346 384.543 361.049C383.918 361.713 383.136 362.123 382.199 362.279L375.869 363.393C374.971 363.549 374.209 363.393 373.584 362.924C372.959 362.455 372.646 361.811 372.646 360.99L375.049 360.521V360.58C375.049 360.814 375.147 360.99 375.342 361.107C375.537 361.264 375.752 361.322 375.987 361.283L381.964 360.228C382.238 360.189 382.453 360.072 382.609 359.877C382.804 359.681 382.902 359.466 382.902 359.232C382.902 358.998 382.804 358.822 382.609 358.705C382.453 358.548 382.238 358.49 381.964 358.529L375.811 359.584C374.912 359.74 374.17 359.584 373.584 359.115C372.959 358.646 372.646 358.021 372.646 357.24C372.646 356.458 372.959 355.735 373.584 355.071C374.17 354.407 374.912 353.997 375.811 353.841L381.906 352.786ZM371.123 354.602V356.712L361.922 358.294V359.818L369.892 358.47V360.58L361.922 361.928V363.569L371.123 362.045V364.155L359.343 366.147V356.595L371.123 354.602ZM349.381 367.847L343.579 359.291L346.626 358.763L350.904 365.21L355.182 357.298L358.23 356.771L352.428 367.378L349.381 367.847ZM338.246 360.111L344.341 368.667L341.528 369.136L340.18 367.261L333.733 368.374L332.385 370.718L329.572 371.187L335.667 360.58L338.246 360.111ZM334.964 366.089L338.89 365.444L336.957 362.69L334.964 366.089ZM318.145 363.51V367.085L325.88 365.796V362.162L328.459 361.752V371.304L325.88 371.773V367.905L318.145 369.195V373.063L315.508 373.531V363.92L318.145 363.51ZM310.468 364.858C311.366 364.702 312.128 364.838 312.753 365.268C313.339 365.737 313.632 366.382 313.632 367.202L311.112 367.671C311.112 367.632 311.112 367.612 311.112 367.612C311.112 367.417 311.034 367.261 310.878 367.144C310.722 367.026 310.526 366.987 310.292 367.026L304.842 367.964C304.607 367.964 304.412 368.062 304.256 368.257C304.099 368.413 304.021 368.609 304.021 368.843C304.06 369.038 304.138 369.195 304.256 369.312C304.412 369.429 304.607 369.468 304.842 369.429C305.506 369.312 306.502 369.136 307.83 368.902C309.159 368.667 310.155 368.511 310.819 368.433C311.718 368.277 312.48 368.433 313.105 368.902C313.769 369.371 314.082 370.015 314.042 370.836C314.042 371.656 313.73 372.418 313.105 373.121C312.48 373.785 311.718 374.196 310.819 374.352L304.431 375.407C303.572 375.563 302.81 375.407 302.146 374.938C301.521 374.469 301.208 373.824 301.208 373.004L303.67 372.594C303.67 372.828 303.748 373.023 303.904 373.18C304.099 373.297 304.314 373.336 304.549 373.297L310.585 372.301C310.819 372.223 311.034 372.105 311.229 371.949C311.386 371.754 311.464 371.539 311.464 371.304C311.464 371.07 311.386 370.875 311.229 370.718C311.034 370.601 310.819 370.562 310.585 370.601L304.373 371.656C303.513 371.812 302.771 371.656 302.146 371.187C301.521 370.718 301.208 370.093 301.208 369.312C301.208 368.491 301.521 367.769 302.146 367.144C302.771 366.479 303.513 366.05 304.373 365.854L310.468 364.858ZM287.495 368.784V370.836L282.103 371.715C281.83 371.754 281.596 371.89 281.4 372.125C281.205 372.359 281.107 372.594 281.107 372.828C281.107 373.102 281.205 373.316 281.4 373.473C281.596 373.59 281.83 373.629 282.103 373.59L292.711 371.773V373.59L290.132 374V377.927L280.697 379.509C279.876 379.665 279.193 379.529 278.646 379.099C278.06 378.669 277.767 378.083 277.767 377.341C277.767 376.833 277.903 376.344 278.177 375.876C278.45 375.407 278.822 375.016 279.29 374.703C279.017 374.508 278.802 374.254 278.646 373.942C278.49 373.668 278.392 373.336 278.353 372.945C278.392 372.203 278.685 371.539 279.232 370.953C279.779 370.328 280.463 369.957 281.283 369.839L287.495 368.784ZM280.697 375.876C280.502 376.11 280.404 376.364 280.404 376.637C280.404 376.872 280.502 377.067 280.697 377.223C280.931 377.38 281.166 377.419 281.4 377.341L287.495 376.344V374.469L281.4 375.524C281.127 375.563 280.892 375.68 280.697 375.876V375.876ZM234.341 377.809V379.919L229.36 380.798V388.241L226.723 388.651V381.208L221.8 382.088V379.919L234.341 377.809ZM209.904 381.97V388.3C209.904 388.612 210.021 388.846 210.255 389.003C210.49 389.198 210.783 389.257 211.134 389.179L216.467 388.3C216.819 388.221 217.112 388.065 217.346 387.831C217.581 387.557 217.698 387.264 217.698 386.952V380.622L220.335 380.212V386.952C220.335 387.733 220.022 388.456 219.397 389.12C218.811 389.745 218.089 390.136 217.229 390.292L210.372 391.464C209.513 391.62 208.79 391.464 208.204 390.995C207.579 390.566 207.266 389.96 207.266 389.179V382.381L209.904 381.97ZM202.754 383.201C203.613 383.045 204.356 383.201 204.981 383.67C205.567 384.1 205.86 384.705 205.86 385.487V386.131L203.223 386.541V386.366C203.223 386.053 203.106 385.819 202.871 385.662C202.637 385.467 202.344 385.408 201.992 385.487L196.249 386.424C195.936 386.502 195.643 386.678 195.37 386.952C195.135 387.186 195.018 387.46 195.018 387.772V390.878C195.018 391.191 195.135 391.425 195.37 391.581C195.643 391.777 195.936 391.835 196.249 391.757L201.992 390.82C202.344 390.741 202.637 390.566 202.871 390.292C203.106 390.058 203.223 389.784 203.223 389.472V389.296L205.86 388.886V389.472C205.86 390.253 205.567 390.956 204.981 391.581C204.356 392.246 203.613 392.656 202.754 392.812L195.487 394.043C194.628 394.16 193.905 394.004 193.319 393.574C192.733 393.144 192.44 392.539 192.44 391.757V387.772C192.44 386.991 192.733 386.287 193.319 385.662C193.905 384.998 194.628 384.588 195.487 384.432L202.754 383.201ZM187.458 385.838C188.396 385.682 189.177 385.838 189.802 386.307C190.467 386.776 190.799 387.44 190.799 388.3C190.799 389.081 190.525 389.804 189.978 390.468C189.392 391.132 188.669 391.581 187.81 391.816L190.975 394.805L187.927 395.332L184.997 392.343L180.66 393.105V396.563L178.023 396.973V387.42L187.458 385.838ZM180.66 390.995L187.224 389.882C187.536 389.843 187.79 389.706 187.986 389.472C188.181 389.276 188.259 389.042 188.22 388.768C188.259 388.495 188.181 388.28 187.986 388.124C187.79 387.967 187.536 387.928 187.224 388.007L180.66 389.12V390.995ZM176.617 387.714V397.266L173.979 397.735V388.124L176.617 387.714ZM166.888 389.354L172.983 397.911L170.17 398.379L168.822 396.504L162.376 397.618L161.028 399.962L158.215 400.431L164.31 389.823L166.888 389.354ZM163.607 395.332L167.533 394.687L165.599 391.933L163.607 395.332ZM146.787 392.753V396.328L154.523 395.039V391.406L157.102 390.995V400.548L154.523 401.017V397.149L146.787 398.497V402.306L144.15 402.775V393.222L146.787 392.753Z" fill="#13181E"/>
<path fill-rule="evenodd" clip-rule="evenodd" d="M221.098 220.927C220.395 223.467 218.989 225.557 216.879 227.198C214.808 228.8 212.191 229.835 209.026 230.304C205.08 230.89 201.896 230.206 199.474 228.253C197.051 226.299 195.84 223.447 195.84 219.697C195.84 216.024 197.071 212.84 199.532 210.144C201.994 207.448 205.158 205.808 209.026 205.221C212.855 204.675 215.922 205.475 218.227 207.624C220.571 209.773 221.743 212.918 221.743 217.059V217.704L201.935 220.517C202.13 222.353 202.853 223.662 204.103 224.444C205.393 225.264 207.092 225.518 209.202 225.205C210.53 225.01 211.722 224.619 212.777 224.033C213.832 223.408 214.633 222.646 215.18 221.748L221.098 220.927ZM201.994 216.356L215.883 214.364C215.375 212.762 214.535 211.629 213.363 210.965C212.23 210.261 210.784 210.047 209.026 210.32C207.229 210.594 205.705 211.258 204.455 212.313C203.205 213.367 202.384 214.715 201.994 216.356V216.356ZM168.531 203.581L165.191 204.049V199.068L174.509 197.72V214.071C175.915 212.547 177.302 211.375 178.669 210.554C179.998 209.734 181.424 209.207 182.947 208.972C185.487 208.621 187.362 209.031 188.573 210.203C189.785 211.375 190.39 213.387 190.39 216.239V227.432L193.731 226.963V231.945L181.072 233.762V228.78L184.413 228.311V218.466C184.413 217.177 184.08 216.219 183.416 215.594C182.752 214.969 181.834 214.754 180.662 214.95C179.607 215.067 178.572 215.497 177.556 216.239C176.54 216.981 175.524 218.036 174.509 219.404V229.718L177.849 229.249V234.23L165.191 236.047V231.066L168.531 230.597V203.581ZM152.005 232.824L156.752 232.121V237.278L140.577 239.622V234.465L145.382 233.82V207.097L140.518 207.8V213.133L134.599 213.953V203.522L162.729 199.42V209.91L156.81 210.789V205.397L152.005 206.101V232.824Z" fill="#13181E"/>
</svg>
