<svg width="512" height="512" viewBox="0 0 512 512" fill="none" xmlns="http://www.w3.org/2000/svg">
<path fill-rule="evenodd" clip-rule="evenodd" d="M316.25 320.343C316.25 332.574 311.291 343.813 303.193 351.746C295.094 359.845 284.02 364.803 271.789 364.803C259.393 364.803 248.319 359.845 240.221 351.746C232.287 343.813 227.163 332.574 227.163 320.343C227.163 308.112 232.287 296.873 240.221 288.774C241.543 287.562 242.92 286.405 244.353 285.303L224.354 264.313L204.355 285.303C205.787 286.405 207.109 287.562 208.321 288.774C216.42 296.873 221.379 308.112 221.379 320.343C221.379 332.574 216.42 343.813 208.321 351.746C200.388 359.845 189.149 364.803 176.918 364.803C164.687 364.803 153.448 359.845 145.515 351.746C144.743 351.085 144.082 350.369 143.531 349.598L132.623 360.506L126.838 354.887L138.738 342.986C134.771 336.375 132.457 328.607 132.457 320.343C132.457 308.112 137.416 296.873 145.515 288.774C153.448 280.841 164.687 275.882 176.918 275.882C181.215 275.882 185.182 276.378 189.149 277.535L205.512 243.322L169.315 88.7842L224.354 203.985L279.392 88.7842L243.196 243.322L259.558 277.535C263.36 276.378 267.492 275.882 271.789 275.882C284.02 275.882 295.094 280.841 303.193 288.774C311.291 296.873 316.25 308.112 316.25 320.343V320.343ZM206.338 320.343C206.338 312.244 203.032 304.806 197.743 299.517C192.454 294.228 185.017 290.923 176.918 290.923C168.819 290.923 161.382 294.228 156.093 299.517C150.804 304.806 147.498 312.244 147.498 320.343C147.498 328.442 150.804 335.879 156.093 341.168C161.382 346.457 168.819 349.763 176.918 349.763C185.017 349.763 192.454 346.457 197.743 341.168C203.032 335.879 206.338 328.442 206.338 320.343ZM301.209 320.343C301.209 312.244 297.904 304.806 292.615 299.517C287.16 294.228 279.888 290.923 271.789 290.923C263.525 290.923 256.253 294.228 250.964 299.517C245.51 304.806 242.369 312.244 242.369 320.343C242.369 328.442 245.51 335.879 250.964 341.168C256.253 346.457 263.525 349.763 271.789 349.763C279.888 349.763 287.16 346.457 292.615 341.168C297.904 335.879 301.209 328.442 301.209 320.343ZM295.755 316.872C298.73 336.54 280.219 350.755 262.699 343.317L257.245 340.011C268.484 341.334 277.409 343.152 285.508 333.565C294.268 322.987 292.449 314.062 286.995 302.823C292.615 306.625 294.763 309.765 295.755 316.872ZM200.388 316.872C203.363 336.54 184.852 350.755 167.332 343.317L161.877 340.011C173.117 341.334 182.042 343.152 190.14 333.565C198.9 322.987 197.082 314.062 191.628 302.823C197.248 306.625 199.396 309.765 200.388 316.872Z" fill="#575756"/>
<path d="M326.001 88.7848C326.001 85.4792 328.645 83 331.951 83C335.091 83 337.736 85.4792 337.736 88.7848L338.232 356.54C338.232 359.68 335.587 362.325 332.447 362.325C329.141 362.325 326.662 359.68 326.662 356.54L326.001 88.7848Z" fill="#575756"/>
<path d="M332.779 102.175C329.639 102.175 326.994 99.5304 326.994 96.2248C326.994 93.0844 329.639 90.4399 332.779 90.4399H371.455C374.595 90.4399 377.24 93.0844 377.24 96.2248C377.24 99.5304 374.595 102.175 371.455 102.175H332.779Z" fill="#575756"/>
<path d="M332.779 232.414C329.639 232.414 326.994 229.77 326.994 226.629C326.994 223.324 329.639 220.679 332.779 220.679H371.455C374.595 220.679 377.24 223.324 377.24 226.629C377.24 229.77 374.595 232.414 371.455 232.414H332.779Z" fill="#575756"/>
<path d="M332.777 213.076C330.629 213.076 328.976 211.424 328.976 209.275C328.976 207.126 330.629 205.308 332.777 205.308H371.453C373.602 205.308 375.255 207.126 375.255 209.275C375.255 211.424 373.602 213.076 371.453 213.076H332.777Z" fill="#575756"/>
<path d="M332.777 197.043C330.629 197.043 328.976 195.225 328.976 193.076C328.976 190.927 330.629 189.109 332.777 189.109H371.453C373.602 189.109 375.255 190.927 375.255 193.076C375.255 195.225 373.602 197.043 371.453 197.043H332.777Z" fill="#575756"/>
<path d="M332.777 180.847C330.629 180.847 328.976 179.029 328.976 176.88C328.976 174.731 330.629 173.079 332.777 173.079H371.453C373.602 173.079 375.255 174.731 375.255 176.88C375.255 179.029 373.602 180.847 371.453 180.847H332.777Z" fill="#575756"/>
<path d="M332.777 164.651C330.629 164.651 328.976 162.998 328.976 160.85C328.976 158.701 330.629 156.883 332.777 156.883H371.453C373.602 156.883 375.255 158.701 375.255 160.85C375.255 162.998 373.602 164.651 371.453 164.651H332.777Z" fill="#575756"/>
<path d="M332.777 148.452C330.629 148.452 328.976 146.799 328.976 144.651C328.976 142.502 330.629 140.684 332.777 140.684H371.453C373.602 140.684 375.255 142.502 375.255 144.651C375.255 146.799 373.602 148.452 371.453 148.452H332.777Z" fill="#575756"/>
<path d="M332.777 132.418C330.629 132.418 328.976 130.6 328.976 128.452C328.976 126.303 330.629 124.485 332.777 124.485H371.453C373.602 124.485 375.255 126.303 375.255 128.452C375.255 130.6 373.602 132.418 371.453 132.418H332.777Z" fill="#575756"/>
<path d="M332.777 116.223C330.629 116.223 328.976 114.405 328.976 112.256C328.976 110.107 330.629 108.455 332.777 108.455H371.453C373.602 108.455 375.255 110.107 375.255 112.256C375.255 114.405 373.602 116.223 371.453 116.223H332.777Z" fill="#575756"/>
<path d="M234.766 231.919C234.766 237.043 230.634 241.175 225.51 241.175C220.387 241.175 216.255 237.043 216.255 231.919C216.255 227.953 218.734 224.482 222.205 223.16L179.232 131.429L173.116 105.479L228.155 223.16C231.956 224.317 234.766 227.787 234.766 231.919Z" fill="white"/>
<path d="M275.59 105.148L269.475 130.932L230.468 214.399C230.138 215.06 229.642 215.391 228.981 215.391C228.32 215.391 227.824 215.06 227.658 214.399L226.336 211.755C226.116 211.314 226.116 210.873 226.336 210.432L275.59 105.148Z" fill="white"/>
<path d="M276.416 143.493H320.381V163.988H276.416V143.493ZM383.353 143.493H505L360.875 309.766L345.339 296.213L460.044 164.153H383.353V143.493ZM296.746 383.481L256.583 429.925L204.85 370.258L220.386 356.871L256.583 398.522L281.21 370.093L296.746 383.481ZM126.837 280.346L8 143.328H167.496V163.988H53.1217L142.373 266.793L126.837 280.346Z" fill="#8B7556"/>
</svg>
