<svg width="512" height="512" viewBox="0 0 512 512" fill="none" xmlns="http://www.w3.org/2000/svg">
<path fill-rule="evenodd" clip-rule="evenodd" d="M63.5592 308.358C73.4203 302.203 84.2402 299.77 93.8274 300.915C103.962 302.203 112.728 307.356 117.795 316.087C122.726 324.817 122.863 335.409 118.891 345.285C115.33 354.588 108.071 363.319 98.2101 369.474C88.212 375.628 77.3922 377.918 67.805 376.773C57.67 375.628 48.9045 370.476 43.9739 361.745C38.9064 352.871 38.9064 342.422 42.7413 332.403C46.4392 323.243 53.5611 314.369 63.5592 308.358ZM92.3208 314.512C85.4728 313.797 77.5291 315.514 70.2703 320.094C62.8744 324.531 57.533 330.972 54.9307 337.699C52.4655 343.71 52.4655 349.865 55.2047 354.731C57.9439 359.598 63.1483 362.461 69.3115 363.176C76.1595 364.035 84.1032 362.317 91.4991 357.737C98.8949 353.157 104.236 346.716 106.839 340.132C109.167 334.121 109.304 327.823 106.565 323.1C103.825 318.234 98.621 315.228 92.3208 314.512Z" fill="#8B7556"/>
<path fill-rule="evenodd" clip-rule="evenodd" d="M199.424 268.712C217.914 259.122 236.54 249.389 255.304 239.656C263.385 243.95 271.876 248.387 293.105 259.408C267.904 274.866 242.841 289.895 218.051 304.923C208.464 310.362 196.548 306.641 191.344 296.622C186.276 286.603 189.837 274.151 199.424 268.712ZM270.37 260.41C270.37 265.563 266.398 269.714 261.467 269.714C256.537 269.714 252.565 265.563 252.565 260.41C252.565 255.257 256.537 251.107 261.467 251.107C266.398 251.107 270.37 255.257 270.37 260.41ZM262.015 236.078C269.959 239.799 279.683 244.666 300.775 254.828C349.806 224.771 398.975 194.141 445.678 162.51C451.431 158.645 482.521 138.607 483.205 132.309C477.727 129.59 444.72 145.62 438.419 148.483C379.938 175.248 320.497 205.735 262.015 236.078Z" fill="#8B7556"/>
<path d="M44.9329 351.297C48.083 349.579 51.9179 350.868 53.4244 354.16C55.068 357.452 53.8353 361.459 50.8222 363.034L28.2238 376.058C25.0737 377.776 21.2388 376.488 19.7323 373.196C18.0887 370.047 19.3214 366.039 22.3345 364.322L44.9329 351.297Z" fill="#8B7556"/>
<path d="M237.226 286.461L240.376 288.894L233.117 294.333C233.117 294.476 213.532 309.505 193.535 309.075C183.537 308.789 177.785 306.928 173.128 305.211C169.704 304.066 166.965 303.207 163.267 303.78C153.817 305.211 116.975 327.11 116.838 327.253L110.401 315.373C110.538 315.23 149.297 292.186 161.213 290.325C168.061 289.18 172.17 290.612 177.1 292.329C181.072 293.617 185.729 295.192 193.809 295.335C201.89 295.621 210.244 292.186 216.271 289.037C223.119 288.322 230.788 287.32 237.226 286.461Z" fill="#8B7556"/>
<path fill-rule="evenodd" clip-rule="evenodd" d="M469.784 332.403C473.619 342.422 473.619 352.871 468.688 361.745C463.62 370.476 454.855 375.628 444.72 376.773C435.133 377.918 424.313 375.628 414.452 369.474C404.454 363.319 397.332 354.588 393.634 345.285C389.799 335.409 389.799 324.817 394.867 316.087C399.797 307.356 408.563 302.203 418.698 300.915C428.285 299.77 439.105 302.203 449.103 308.358C458.964 314.369 466.086 323.243 469.784 332.403V332.403ZM406.097 323.1C403.358 327.966 403.358 334.121 405.823 340.132C408.426 346.716 413.767 353.157 421.026 357.737C428.422 362.317 436.365 364.035 443.213 363.176C449.377 362.461 454.718 359.598 457.457 354.731C460.196 349.865 460.059 343.71 457.731 337.699C455.129 330.972 449.787 324.531 442.392 320.094C434.996 315.514 427.052 313.797 420.204 314.512C414.041 315.228 408.836 318.234 406.097 323.1Z" fill="#8B7556"/>
<path fill-rule="evenodd" clip-rule="evenodd" d="M321.182 296.622C315.977 306.641 304.062 310.362 294.474 304.923C219.146 259.265 139.847 212.032 66.9838 162.51C61.0945 158.645 30.1416 138.607 29.4568 132.309C34.7982 129.59 67.8056 145.62 74.2427 148.483C153.816 184.981 235.171 228.206 313.238 268.712C322.688 274.151 326.386 286.603 321.182 296.622V296.622ZM252.565 260.41C252.565 265.563 256.536 269.714 261.467 269.714C266.398 269.714 270.369 265.563 270.369 260.41C270.369 255.257 266.398 251.107 261.467 251.107C256.536 251.107 252.565 255.257 252.565 260.41Z" fill="#8B7556"/>
<path d="M490.191 364.322C493.341 366.039 494.573 370.047 492.93 373.196C491.286 376.488 487.451 377.776 484.301 376.058L461.84 363.034C458.69 361.459 457.457 357.452 459.101 354.16C460.744 350.868 464.579 349.579 467.592 351.297L490.191 364.322Z" fill="#8B7556"/>
<path d="M296.255 289.037C302.281 292.186 310.635 295.621 318.853 295.335C326.797 295.192 331.453 293.617 335.425 292.329C340.493 290.612 344.465 289.18 351.313 290.325C363.228 292.186 402.125 315.23 402.125 315.373L395.688 327.253C395.551 327.11 358.845 305.211 349.258 303.78C345.56 303.207 342.821 304.066 339.534 305.211C334.74 306.928 328.988 308.789 318.99 309.075C299.131 309.505 279.546 294.476 279.409 294.333L272.15 288.894L275.3 286.461C281.874 287.32 289.407 288.322 296.255 289.037V289.037Z" fill="#8B7556"/>
<path d="M256.262 356.735C256.262 356.735 221.748 387.794 188.604 378.777L188.193 378.634C209.833 376.773 236.266 361.601 244.894 340.275C226.268 356.735 202.3 379.063 175.73 370.046C195.041 368.901 218.872 350.723 228.048 333.119C208.326 349.435 183.399 374.197 156.281 356.878C156.099 356.783 155.962 356.687 155.87 356.592C151.077 349.722 149.707 344.139 149.707 344.139C149.707 344.139 166.416 359.741 180.249 348.29C198.054 333.691 235.033 282.451 256.262 324.388C277.491 282.451 314.47 333.691 332.275 348.29C346.108 359.741 362.817 344.139 362.817 344.139C362.817 344.139 361.584 349.722 356.791 356.592C356.608 356.687 356.426 356.783 356.243 356.878C329.262 374.197 304.335 349.435 284.476 333.119C293.789 350.723 317.483 368.901 336.795 370.046C310.361 379.063 286.393 356.735 267.767 340.275C275.71 360.027 304.061 376.916 324.331 378.634L323.92 378.777C290.913 387.937 256.262 356.735 256.262 356.735V356.735Z" fill="#575756"/>
</svg>
