<svg width="28" height="28" viewBox="0 0 28 28" fill="none" xmlns="http://www.w3.org/2000/svg">
<g clip-path="url(#clip0_101_322)">
<path d="M24.239 23.2423C26.2097 20.9094 27.3983 17.8946 27.3983 14.6016C27.3983 7.20192 21.3997 1.20325 14 1.20325C6.60024 1.20325 0.601624 7.20192 0.601624 14.6016C0.601624 17.9097 1.80119 20.9372 3.78815 23.2744L24.239 23.2423Z" fill="#D5A353"/>
<path d="M18.6582 20.777C16.9141 23.7284 14.102 23.7543 14.102 23.7543C14.102 23.7543 11.2923 23.7284 9.54816 20.7804C9.50818 20.8289 9.467 20.876 9.42309 20.9199C9.18908 20.9739 8.95857 21.0334 8.73047 21.0971C8.85592 21.1518 8.96508 21.2447 9.03798 21.3692C10.1105 23.2009 11.9803 25.3888 14.108 25.3888C16.2357 25.3888 18.1055 23.2009 19.178 21.3692C19.2504 21.2456 19.3585 21.1531 19.4829 21.0983C19.2534 21.0341 19.0215 20.9742 18.7861 20.9199C18.7411 20.875 18.699 20.8267 18.6582 20.777Z" fill="#FCAD6D"/>
<path d="M12.5161 23.3876C11.5893 23.0176 10.432 22.2743 9.54809 20.7805C9.50812 20.8289 9.46694 20.8761 9.42303 20.9199C9.18902 20.9739 8.95851 21.0334 8.73041 21.0972C8.85586 21.1518 8.96502 21.2448 9.03792 21.3693C9.65933 22.4307 10.5485 23.6115 11.6005 24.4171C11.6551 24.3962 11.7017 24.376 11.7385 24.3563C12.1463 24.1377 12.3908 23.6896 12.5161 23.3876Z" fill="#FD995B"/>
<path d="M21.2632 5.59797C21.2632 4.1033 20.4021 3.48397 19.8325 3.23782C19.5455 3.11373 19.3213 2.88743 19.2073 2.60492C18.9581 1.98733 18.2534 0.917208 16.2829 0.263255C13.3858 -0.69826 10.8106 1.25572 9.42641 1.62793C8.51613 1.87265 7.80082 1.33278 7.41762 0.93438C7.25569 0.765998 6.96782 0.816966 6.87589 1.02872C6.57669 1.71789 6.14078 3.07326 6.53962 4.48278C6.56406 4.56913 6.47656 4.64613 6.38901 4.61611C6.27329 4.57646 6.16933 4.53949 6.08582 4.50919C6.00029 4.47824 5.91498 4.55551 5.94216 4.63951C6.27925 5.68142 6.60601 6.27576 6.89924 6.59634C7.02901 6.7382 7.11575 6.91227 7.13817 7.10012C7.18176 7.46604 7.25493 7.85607 7.37552 8.21739C7.55352 8.75086 7.66514 9.30365 7.6973 9.86512C7.69768 9.87169 7.69795 9.87551 7.69817 9.87628H20.655C20.6556 9.8736 20.6563 9.86425 20.6571 9.84932C20.6885 9.29872 20.7959 8.75491 20.9725 8.23248C21.3661 7.06851 21.2632 5.59797 21.2632 5.59797Z" fill="#41416B"/>
<path d="M11.2212 6.26892C11.2212 6.26892 12.4249 4.82708 11.5863 3.19991C10.7477 1.57274 12.7754 0.287964 12.7754 0.287964C11.3814 0.696042 10.212 1.41671 9.42641 1.62792C8.51619 1.8727 7.80082 1.33277 7.41762 0.93437C7.25569 0.765987 6.96782 0.816956 6.87589 1.02871C6.57669 1.71788 6.14078 3.07325 6.53962 4.48277C6.56406 4.56912 6.47656 4.64612 6.38901 4.6161C6.27329 4.57645 6.16933 4.53948 6.08582 4.50918C6.00029 4.47823 5.91498 4.5555 5.94216 4.6395C6.27925 5.68141 6.60601 6.27581 6.89924 6.59633C7.02901 6.73819 7.11575 6.91226 7.13817 7.10011C7.18176 7.46603 7.25493 7.856 7.37552 8.21738C7.55352 8.75085 7.66514 9.30364 7.6973 9.86511C7.69768 9.87167 7.69795 9.8755 7.69817 9.87627H10.4305L11.2212 6.26892Z" fill="#35355E"/>
<path d="M21.069 9.81855C20.7784 9.55228 20.1996 9.68725 19.9493 9.85032C20.0042 10.1917 20.0073 10.541 19.96 10.8859L19.6646 13.0367C19.6646 13.21 19.6592 13.3802 19.6491 13.5473C20.3692 13.7645 20.7269 13.118 20.7872 12.6744C20.8131 12.4834 20.8555 12.2952 20.9143 12.1115C21.1059 11.5133 21.797 10.4857 21.069 9.81855Z" fill="#FCAD6D"/>
<path d="M20.5221 11.8535C20.2548 11.8535 20.0187 11.7226 19.8726 11.5219L19.6646 13.0366C19.6646 13.21 19.6592 13.3801 19.6491 13.5473C20.3692 13.7645 20.7269 13.118 20.7872 12.6743C20.8131 12.4834 20.8555 12.2951 20.9144 12.1114C20.9639 11.9567 21.0469 11.773 21.1302 11.5744C20.9828 11.7451 20.7653 11.8535 20.5221 11.8535Z" fill="#FD995B"/>
<path d="M7.13533 9.81855C7.42588 9.55228 8.0047 9.68725 8.25495 9.85032C8.20009 10.1917 8.19698 10.541 8.24439 10.8859L8.5397 13.0367C8.5397 13.21 8.54517 13.3802 8.55524 13.5473C7.83517 13.7645 7.47745 13.118 7.41719 12.6744C7.39127 12.4834 7.34883 12.2952 7.29004 12.1115C7.09836 11.5133 6.40733 10.4857 7.13533 9.81855Z" fill="#FCAD6D"/>
<path d="M19.5779 8.73329C19.3991 8.45274 19.3205 8.12089 19.3444 7.78998C19.3589 7.58961 19.3685 7.34871 19.3633 7.08834C19.3613 7.05411 19.3602 7.01697 19.3602 6.9765C19.3574 6.90065 19.3532 6.82343 19.3475 6.74534C19.2774 6.04835 18.9028 5.54637 18.6045 5.25128C18.4053 5.05418 18.0981 5.01546 17.8527 5.15076C14.1647 7.18437 11.1083 6.43307 9.46266 5.69239C9.26327 5.60264 9.03325 5.71896 8.98086 5.93126C8.81669 6.59659 8.82506 7.31606 8.86049 7.79813C8.88461 8.12647 8.80378 8.45493 8.62632 8.73334C8.52406 8.89379 8.44224 9.06365 8.37678 9.23176C8.16448 9.77705 8.10263 10.3685 8.18215 10.9476L8.47752 13.0989C8.47752 13.1028 8.47768 13.1065 8.47768 13.1104C8.78136 13.9961 9.39583 15.2658 10.4937 15.6262L10.5076 15.6302C11.1684 15.8201 11.6792 16.3412 11.8958 17.0059C12.2017 17.9447 13.07 18.1943 14.102 18.1943C15.1345 18.1943 16.0021 17.9446 16.308 17.0062C16.5247 16.3415 17.0355 15.8201 17.6963 15.6302L17.7102 15.6262C18.8082 15.2658 19.4228 13.9958 19.7266 13.11C19.7266 13.1063 19.7267 13.1026 19.7267 13.0989L20.022 10.9481C20.1008 10.3747 20.0411 9.78903 19.8337 9.248C19.7673 9.07448 19.6835 8.89888 19.5779 8.73329Z" fill="#F9BA8F"/>
<path d="M7.68216 11.8535C7.94942 11.8535 8.1855 11.7226 8.33163 11.5219L8.53961 13.0366C8.53961 13.21 8.54507 13.3801 8.55508 13.5473C7.83496 13.7645 7.4773 13.118 7.41704 12.6743C7.39111 12.4834 7.34868 12.2951 7.28983 12.1114C7.24029 11.9567 7.15727 11.773 7.07404 11.5744C7.22147 11.7451 7.43897 11.8535 7.68216 11.8535Z" fill="#FD995B"/>
<path d="M10.6425 10.9475C10.5487 10.086 10.7167 9.2833 10.9946 8.7333C11.1353 8.45489 11.1994 8.12644 11.1802 7.79809C11.1569 7.39685 11.1485 6.83105 11.2212 6.26892C10.5313 6.12088 9.93994 5.90694 9.46552 5.69366C9.26482 5.60343 9.0336 5.71751 8.98088 5.93112C8.81666 6.5965 8.82508 7.31602 8.86046 7.79809C8.88458 8.12644 8.80375 8.45483 8.62629 8.7333C8.27098 9.29073 8.06503 10.0947 8.18212 10.9475L8.47754 13.0988C8.47754 13.1027 8.4777 13.1064 8.47776 13.1103C8.78144 13.996 9.3959 15.2657 10.4938 15.6261L10.5077 15.6301C10.8222 15.7205 11.1022 15.8866 11.3332 16.1068C11.0541 15.2385 10.8767 14.2359 10.8767 13.0988L10.6425 10.9475Z" fill="#FCAD6D"/>
<path d="M16.1172 10.8805C16.1172 10.7793 16.1361 10.683 16.1699 10.5955C16.0384 10.66 15.9321 10.7332 15.8565 10.7949C15.6799 10.9388 15.3731 11.1214 15.205 11.218C15.1733 11.2362 15.1862 11.2847 15.2229 11.2847H15.2394C15.3953 11.2847 15.5504 11.3091 15.6985 11.3579C15.9554 11.4425 16.2012 11.4845 16.4284 11.4984C16.2417 11.3703 16.1172 11.1416 16.1172 10.8805Z" fill="#FFF5EE"/>
<path d="M18.2072 11.0389C17.9003 10.751 17.6053 10.5849 17.3325 10.5008C17.3939 10.6113 17.4294 10.7413 17.4294 10.8805C17.4294 11.1081 17.3347 11.311 17.1868 11.4442C17.4101 11.3981 17.5845 11.3338 17.6924 11.2847C17.9138 11.1838 18.0813 11.1428 18.1809 11.1261C18.2224 11.1193 18.2379 11.0677 18.2072 11.0389Z" fill="#FFF5EE"/>
<path d="M16.1287 10.6164C16.0913 10.7019 16.0704 10.7962 16.0704 10.8956C16.0704 11.1525 16.2096 11.3767 16.4164 11.4977C16.7149 11.5171 16.9818 11.4878 17.2005 11.4414C17.3612 11.3137 17.4644 11.1168 17.4644 10.8956C17.4644 10.7506 17.4201 10.616 17.3444 10.5046C16.8446 10.3464 16.4184 10.4644 16.1287 10.6164Z" fill="#41416B"/>
<path d="M17.0273 10.9393C17.0273 11.0868 16.9077 11.2064 16.7602 11.2064C16.6126 11.2064 16.493 11.0868 16.493 10.9393C16.493 10.7917 16.6126 10.6721 16.7602 10.6721C16.9077 10.6721 17.0273 10.7917 17.0273 10.9393Z" fill="#35355E"/>
<path d="M18.7976 10.0495C18.7577 9.78706 18.5987 9.17707 17.9781 9.03604C17.3515 8.89363 16.0302 9.16203 15.4952 9.283C15.3527 9.31521 15.2398 9.42361 15.2016 9.56464L15.0914 9.97108C15.082 10.0056 15.1138 10.0371 15.1482 10.0275C15.5538 9.91366 17.4213 9.40868 17.9901 9.59117C18.424 9.73029 18.6468 9.94718 18.7453 10.0723C18.764 10.096 18.8022 10.0794 18.7976 10.0495Z" fill="#41416B"/>
<path d="M12.2294 10.8805C12.2294 10.7793 12.2105 10.683 12.1766 10.5955C12.3082 10.66 12.4144 10.7332 12.4901 10.7949C12.6667 10.9388 12.9735 11.1214 13.1415 11.218C13.1733 11.2362 13.1603 11.2847 13.1237 11.2847H13.1071C12.9512 11.2847 12.7961 11.3091 12.648 11.3579C12.3911 11.4425 12.1454 11.4845 11.9181 11.4984C12.1048 11.3703 12.2294 11.1416 12.2294 10.8805Z" fill="#FFF5EE"/>
<path d="M10.1393 11.0389C10.4462 10.751 10.7412 10.5849 11.014 10.5008C10.9527 10.6113 10.9172 10.7413 10.9172 10.8805C10.9172 11.1081 11.0119 11.311 11.1598 11.4442C10.9364 11.3981 10.7621 11.3338 10.6541 11.2847C10.4327 11.1838 10.2652 11.1428 10.1656 11.1261C10.1242 11.1193 10.1087 11.0677 10.1393 11.0389Z" fill="#FFF5EE"/>
<path d="M12.2178 10.6164C12.2552 10.7019 12.2761 10.7962 12.2761 10.8956C12.2761 11.1525 12.137 11.3767 11.9301 11.4977C11.6317 11.5171 11.3648 11.4878 11.1461 11.4414C10.9853 11.3137 10.8822 11.1168 10.8822 10.8956C10.8822 10.7506 10.9264 10.616 11.0022 10.5046C11.502 10.3464 11.9282 10.4644 12.2178 10.6164Z" fill="#41416B"/>
<path d="M11.3192 10.9393C11.3192 11.0868 11.4388 11.2064 11.5864 11.2064C11.7339 11.2064 11.8535 11.0868 11.8535 10.9393C11.8535 10.7917 11.7339 10.6721 11.5864 10.6721C11.4388 10.6721 11.3192 10.7917 11.3192 10.9393Z" fill="#35355E"/>
<path d="M9.54896 10.0495C9.58888 9.78706 9.74791 9.17707 10.3684 9.03604C10.9951 8.89363 12.3164 9.16203 12.8513 9.283C12.9938 9.31521 13.1068 9.42361 13.145 9.56464L13.2552 9.97108C13.2645 10.0056 13.2328 10.0371 13.1983 10.0275C12.7927 9.91366 10.9253 9.40868 10.3564 9.59117C9.92253 9.73029 9.69973 9.94718 9.60124 10.0723C9.58264 10.096 9.54442 10.0794 9.54896 10.0495Z" fill="#41416B"/>
<path d="M15.7386 16.2848L15.1421 16.52C15.075 16.5465 15.0009 16.5495 14.9319 16.5287L14.2444 16.3214L13.557 16.5287C13.4879 16.5495 13.4138 16.5465 13.3467 16.52L12.7502 16.2848C12.5854 16.2198 12.5045 16.0335 12.5694 15.8688C12.6342 15.7044 12.8202 15.6229 12.9855 15.688L13.4784 15.8824L14.1488 15.6802C14.2138 15.6599 14.2815 15.6614 14.34 15.6802L15.0104 15.8824L15.5033 15.688C15.6678 15.6233 15.8541 15.7035 15.9193 15.8688C15.9844 16.0336 15.9035 16.2198 15.7386 16.2848Z" fill="#FCAD6D"/>
<path d="M16.5372 9.08459C16.1215 9.14743 15.7316 9.22963 15.4952 9.28306C15.3527 9.31527 15.2398 9.42366 15.2016 9.5647L15.0914 9.97113C15.082 10.0056 15.1138 10.0371 15.1483 10.0275C15.3731 9.96441 16.0474 9.7812 16.7006 9.66144C16.4319 9.60954 16.3335 9.27217 16.5372 9.08459Z" fill="#35355E"/>
<path d="M11.4297 9.03436C11.0263 8.98935 10.6347 8.97562 10.3685 9.03611C9.74792 9.17714 9.58894 9.78707 9.54902 10.0496C9.54448 10.0794 9.58265 10.0961 9.60135 10.0724C9.69984 9.94725 9.92264 9.73036 10.3565 9.59124C10.573 9.52179 10.9777 9.55203 11.4182 9.62225C11.189 9.48925 11.1964 9.15757 11.4297 9.03436Z" fill="#35355E"/>
<path d="M19.8489 12.2092C19.8489 12.2092 19.3326 14.9949 17.6328 15.5529L17.6193 15.5568C16.9726 15.7426 16.4728 16.2528 16.2608 16.9033C15.9614 17.8215 15.1124 18.0659 14.102 18.0659C13.0921 18.0659 12.2426 17.8216 11.9432 16.9029C11.7312 16.2525 11.2313 15.7425 10.5848 15.5568L10.5712 15.5529C8.87149 14.9949 8.35541 12.2092 8.35541 12.2092C7.04887 23.8583 14.102 23.9226 14.102 23.9226C14.102 23.9226 21.1555 23.8583 19.8489 12.2092Z" fill="#41416B"/>
<path d="M14.4503 17.0555H14.0386C13.8614 17.0555 13.7178 17.1991 13.7178 17.3762C13.7178 17.5534 13.8614 17.697 14.0386 17.697H14.4503C14.6275 17.697 14.7711 17.5534 14.7711 17.3762C14.7711 17.1991 14.6275 17.0555 14.4503 17.0555Z" fill="#FCAD6D"/>
<path d="M10.5712 15.6645L10.5848 15.6684C11.024 15.7946 11.3951 16.0706 11.6547 16.4384L11.9545 16.2392C12.1267 16.1248 12.3297 16.0627 12.5364 16.0693C13.2547 16.0923 13.8841 15.883 14.1321 15.7871C14.2045 15.7591 14.2844 15.7591 14.3569 15.7871C14.6049 15.883 15.2342 16.0923 15.9526 16.0693C16.1592 16.0627 16.3622 16.1248 16.5345 16.2392L16.6457 16.3132C16.8975 16.0084 17.2317 15.7798 17.6193 15.6684L17.6329 15.6645C17.7928 15.612 17.9423 15.5397 18.0819 15.4519C17.5936 14.6166 16.4748 13.443 14.2445 14.252C11.905 13.4034 10.7883 14.7363 10.3398 15.5718C10.4143 15.6072 10.4915 15.6383 10.5712 15.6645Z" fill="#41416B"/>
<path d="M13.1683 14.0767L13.4129 14.0252C13.8672 14.474 14.6223 14.4732 15.0759 14.0252L15.3205 14.0767C15.4963 14.1135 15.6692 14.0011 15.7063 13.825C15.7434 13.649 15.6307 13.4763 15.4547 13.4392L15.0159 13.3468C14.8731 13.3168 14.7337 13.3741 14.6662 13.5034C14.4888 13.7778 14.0004 13.7782 13.8227 13.5034C13.7552 13.3741 13.6158 13.3169 13.4729 13.3468L13.0341 13.4392C12.8581 13.4763 12.7454 13.649 12.7825 13.825C12.8195 14.0011 12.9923 14.1136 13.1683 14.0767Z" fill="#FCAD6D"/>
<path d="M14 28C18.1326 28 21.8277 26.1285 24.2854 23.1874C23.9528 23.1093 23.6971 22.9381 23.2407 22.6807C22.1156 22.0464 20.9754 21.4562 19.7604 21.071C19.4754 20.9807 19.1644 21.1007 19.0133 21.3587C17.975 23.1321 16.1645 25.2505 14.1046 25.2505C12.0446 25.2505 10.2342 23.1322 9.19583 21.3587C9.04473 21.1007 8.73378 20.9806 8.44874 21.071C7.23375 21.4562 6.09352 22.0464 4.96854 22.6807C4.43277 22.9828 4.17366 23.1664 3.74207 23.2198C6.19978 26.1422 9.88265 28 14 28Z" fill="#FFF5EE"/>
<path d="M9.19583 21.3588C9.04473 21.1008 8.73378 20.9807 8.44875 21.0711C7.23375 21.4563 6.09352 22.0464 4.96854 22.6808C4.43277 22.9829 4.17366 23.1665 3.74207 23.2198C4.82346 24.5057 6.14219 25.5851 7.63057 26.3911C8.86087 24.9891 11.2233 24.6325 11.7386 24.3563C11.7386 24.3563 11.7386 24.3562 11.7387 24.3562C10.6933 23.5756 9.80959 22.4071 9.19583 21.3588Z" fill="#FCE6D6"/>
<path d="M12.4065 14.0117C11.2776 14.1812 10.6494 14.9949 10.3398 15.5717C10.4144 15.6072 10.4915 15.6382 10.5712 15.6644L10.5848 15.6683C11.024 15.7945 11.3951 16.0706 11.6547 16.4384L11.9545 16.2392C12.1268 16.1248 12.3298 16.0626 12.5364 16.0692C12.6847 16.074 12.8289 16.0685 12.9671 16.0564C11.7049 15.2975 12.4062 14.0122 12.4065 14.0117Z" fill="#35355E"/>
<path d="M13.8464 20.7026C12.7291 19.3071 14.2444 18.0659 14.2444 18.0659L14.2436 18.0641C14.1967 18.0652 14.1496 18.0659 14.102 18.0659C13.0921 18.0659 12.2425 17.8217 11.9431 16.903C11.7312 16.2526 11.2313 15.7426 10.5847 15.5568L10.5712 15.5529C8.87143 14.9949 8.35535 12.2092 8.35535 12.2092C7.04881 23.8583 14.102 23.9226 14.102 23.9226C14.102 23.9226 15.3613 22.5948 13.8464 20.7026Z" fill="#35355E"/>
</g>
<defs>
<clipPath id="clip0_101_322">
<rect width="28" height="28" fill="white"/>
</clipPath>
</defs>
</svg>
