<svg width="28" height="30" viewBox="0 0 28 30" fill="none" xmlns="http://www.w3.org/2000/svg">
<path d="M2.55586 23.3222H25.4441C27.0539 21.0422 27.9999 18.2601 27.9999 15.2569C27.9999 7.52489 21.7319 1.2569 14 1.2569C6.26799 1.2569 0 7.52489 0 15.2569C0 18.2601 0.946047 21.0422 2.55586 23.3222Z" fill="#D5A353"/>
<path d="M25.1785 22.6773C24.3078 20.936 22.7797 20.4498 22.0835 20.3161C22.0835 20.3161 20.3027 19.991 18.7294 19.3513C18.681 19.506 18.5755 19.6433 18.4208 19.7267C17.3474 20.3054 15.8996 20.7802 14.038 20.7802C13.6589 20.7802 13.2978 20.7596 12.9527 20.7234C12.9616 20.7434 12.97 20.7634 12.9795 20.7836C12.5963 20.832 11.369 21.0186 10.1557 21.5391C8.21167 22.3729 7.18408 23.6793 7.18408 25.317V27.4878C9.20115 28.6144 11.5254 29.2568 14 29.2568C18.7287 29.2568 22.9094 26.9121 25.4441 23.3222C25.3641 23.0884 25.2759 22.8722 25.1785 22.6773Z" fill="#72AAFC"/>
<path d="M9.33744 19.3239C7.74814 19.9817 5.9165 20.3161 5.9165 20.3161C5.22022 20.4498 3.69218 20.9361 2.82151 22.6774C2.72408 22.8722 2.63596 23.0884 2.55591 23.3222C3.78298 25.0601 5.39582 26.5062 7.26986 27.5357C7.26986 26.9483 7.26986 26.2197 7.26986 25.317C7.26986 21.4021 13.1092 20.8549 13.1092 20.8549C13.0887 20.814 13.0696 20.7738 13.0513 20.734C11.6556 20.6014 10.5303 20.1985 9.65446 19.7261C9.49081 19.6377 9.38155 19.4896 9.33744 19.3239Z" fill="#548BED"/>
<path d="M18.8147 18.8636L17.7174 17.1013C17.563 16.8533 17.2662 16.7355 16.9829 16.8068C16.1265 17.0222 15.1214 17.1849 14.038 17.1849C13.9251 17.1849 13.8133 17.1827 13.7021 17.1793V18.1169C13.5365 18.1989 13.0322 18.4903 12.8103 19.0874C12.6275 19.5796 12.6844 20.1497 12.9794 20.7836C12.9205 20.791 12.8415 20.8017 12.7458 20.8165C13.1533 20.8663 13.5833 20.8945 14.038 20.8945C15.9612 20.8945 17.4569 20.404 18.5657 19.8061C18.9051 19.6232 19.0184 19.191 18.8147 18.8636Z" fill="#548BED"/>
<path d="M11.0925 16.8063C10.8091 16.7349 10.5122 16.8527 10.3578 17.1007L9.26066 18.863C9.05689 19.1903 9.17014 19.6224 9.50951 19.8055C10.4329 20.3036 11.6255 20.7261 13.1088 20.8539C12.1111 18.868 13.7879 18.1716 13.7879 18.1716V17.1817C12.7999 17.1591 11.8829 17.0053 11.0925 16.8063Z" fill="#3E7FDD"/>
<path d="M19.0664 16.1494C18.6808 14.7987 18.5209 13.7442 18.4863 12.9294C18.1933 13.9864 17.8106 14.9223 17.3443 15.7202C17.0752 16.1806 16.7413 16.5929 16.3535 16.9503C15.7741 20.3303 16.8575 22.8765 17.71 24.2679C17.8897 24.5611 18.3684 24.4381 18.3638 24.0996C18.3255 21.2974 20.1049 19.7865 19.0664 16.1494Z" fill="#45304C"/>
<path d="M14.0374 2.25026C14.936 2.25026 15.6983 2.42323 16.34 2.68974C16.3581 2.5726 16.3677 2.45255 16.3677 2.33032C16.3676 1.0433 15.3243 0 14.0374 0C12.7504 0 11.707 1.0433 11.707 2.33032C11.707 2.45255 11.7166 2.57254 11.7347 2.68974C12.3764 2.42323 13.1387 2.25026 14.0374 2.25026Z" fill="#56415E"/>
<path d="M14.0374 1.75655C13.1215 0.840677 14.0374 0 14.0374 0C12.7504 0 11.707 1.0433 11.707 2.33032C11.707 2.45255 11.7166 2.57254 11.7347 2.68974C12.3764 2.42323 13.1387 2.25032 14.0374 2.25032V1.75655Z" fill="#45304C"/>
<path d="M11.3275 3.02835C12.0466 2.65738 12.9407 2.39995 14.0374 2.39995C15.1341 2.39995 16.0282 2.65738 16.7473 3.0284C16.875 3.09429 16.9982 3.16594 17.1178 3.242C16.3961 2.3371 15.2848 1.75653 14.0374 1.75653C12.79 1.75653 11.6787 2.33704 10.957 3.24194C11.0765 3.16589 11.1998 3.09423 11.3275 3.02835Z" fill="#D3DCFB"/>
<path d="M9.48339 9.53331C9.54859 9.32 9.63778 9.13531 9.75841 8.99937C9.86698 8.87703 9.9351 8.72566 9.93995 8.56372C9.96818 7.61773 10.3318 4.55285 13.8236 5.8914C13.9608 5.94397 14.1139 5.94397 14.2511 5.8914C17.7429 4.55285 18.1065 7.61773 18.1347 8.56372C18.1396 8.72566 18.2077 8.87703 18.3163 8.99937C18.4369 9.13531 18.5261 9.32 18.5913 9.53331V9.53325C18.7682 9.41531 19.0429 9.334 19.2911 9.33983L19.2912 9.33908V7.04305C19.2912 5.30312 18.3212 3.69063 16.7472 2.87858C16.0282 2.50761 15.1341 2.25018 14.0373 2.25018C12.9406 2.25018 12.0465 2.50761 11.3275 2.87858C9.75344 3.69063 8.78351 5.30312 8.78351 7.04305V9.33908L8.78356 9.33983C9.03179 9.33405 9.30647 9.41537 9.48339 9.53331Z" fill="#56415E"/>
<path d="M14.0373 2.25024C12.9406 2.25024 12.0465 2.50767 11.3275 2.87864C9.75344 3.69069 8.78351 5.30318 8.78351 7.04311V9.33914L8.78356 9.33989C9.03185 9.33406 9.30647 9.41543 9.48339 9.53331C9.54859 9.32 9.63778 9.13532 9.75841 8.99937C9.86698 8.87703 9.9351 8.72566 9.93995 8.56372C9.96767 7.6359 10.3183 4.67022 13.6264 5.81969C13.6125 5.80164 13.5993 5.78347 13.5843 5.76564C12.0322 3.91823 14.0373 2.25024 14.0373 2.25024Z" fill="#45304C"/>
<path d="M9.44013 12.2611C9.44013 12.2611 9.15517 10.4577 9.48339 9.38361C9.18556 9.1851 8.6102 9.08818 8.35146 9.34115C7.82164 9.85909 8.20986 10.6413 8.39563 11.1353C8.45266 11.287 8.48946 11.4404 8.50609 11.5942C8.54226 11.9282 8.72334 12.417 9.47419 12.4055C9.46282 12.3574 9.45122 12.31 9.44013 12.2611Z" fill="#FC9460"/>
<path d="M19.7233 9.34115C19.4645 9.08818 18.8891 9.1851 18.5914 9.38361C18.9196 10.4577 18.6346 12.2611 18.6346 12.2611C18.6235 12.31 18.6119 12.3574 18.6006 12.4055C19.3515 12.4171 19.5326 11.9282 19.5687 11.5942C19.5854 11.4404 19.6222 11.287 19.6792 11.1353C19.8649 10.6413 20.2531 9.85909 19.7233 9.34115Z" fill="#FFAA7B"/>
<path d="M18.3444 8.82483C18.2362 8.70289 18.1766 8.56043 18.1722 8.41289C18.1555 7.8513 18.0137 6.4768 17.0611 5.84246C16.3854 5.39252 15.4355 5.39721 14.2378 5.85652C14.1086 5.90606 13.9662 5.90606 13.837 5.85652C13.6918 5.80086 13.5504 5.75217 13.4125 5.70983C12.4429 6.36 12.2982 7.76175 12.2812 8.33506C12.2766 8.48603 12.2158 8.63163 12.1051 8.75632C11.4951 9.44374 11.6287 11.4521 11.771 12.2789C12.0862 13.67 12.5428 14.8831 13.1278 15.8844C13.6117 16.7125 14.2993 17.3895 15.1362 17.8715C16.0657 17.3957 16.8248 16.6841 17.3443 15.795C17.9163 14.8161 18.3628 13.6299 18.6716 12.2669C18.8053 11.417 18.9477 9.50477 18.3444 8.82483Z" fill="#FFC7AB"/>
<path d="M13.1749 15.7951C12.6028 14.8159 12.1564 13.6298 11.8482 12.2694C11.709 11.4609 11.5784 9.49706 12.1749 8.82484C12.2832 8.7029 12.3426 8.5605 12.347 8.4129C12.3638 7.85131 12.5056 6.47669 13.4582 5.84241C13.4991 5.8151 13.5413 5.78961 13.5843 5.76567C12.5052 5.39962 11.641 5.42476 11.0137 5.84241C10.0611 6.47675 9.91929 7.85131 9.90255 8.4129C9.89815 8.5605 9.83866 8.7029 9.73038 8.82484C9.13387 9.49701 9.2645 11.4609 9.40369 12.2694C9.71192 13.6298 10.1584 14.8159 10.7304 15.7951C11.3112 16.789 12.1908 17.5621 13.274 18.0307C13.7592 18.2406 14.3155 18.2406 14.8006 18.0307C14.9582 17.9626 15.1109 17.8872 15.2595 17.8064C14.3863 17.3317 13.6712 16.6444 13.1749 15.7951Z" fill="#FFAA7B"/>
<path d="M23.4923 25.5464C23.2105 24.4187 22.5117 23.7647 21.9452 23.4065C21.588 23.1807 21.1223 23.4348 21.1223 23.8575V27.3117C21.9746 26.807 22.7687 26.2143 23.4923 25.5464Z" fill="#548BED"/>
<path d="M17.4793 18.1881C17.4793 19.7174 17.7316 21.2088 18.8194 21.3937C19.2464 19.9195 19.7278 18.4655 19.0665 16.1494C19.0506 16.0936 19.0356 16.039 19.0204 15.9842C18.3135 16.3632 17.4793 17.0511 17.4793 18.1881Z" fill="#56415E"/>
</svg>
