<svg width="23" height="15" viewBox="0 0 23 15" fill="none" xmlns="http://www.w3.org/2000/svg">
<path d="M15.3333 14C15.3333 14.5523 14.8856 15 14.3333 15H1C0.447715 15 0 14.5523 0 14V13.5C0 12.9477 0.447715 12.5 1 12.5H14.3333C14.8856 12.5 15.3333 12.9477 15.3333 13.5V14ZM23 7.75C23 8.30228 22.5523 8.75 22 8.75H1C0.447715 8.75 0 8.30228 0 7.75V7.25C0 6.69772 0.447715 6.25 1 6.25H22C22.5523 6.25 23 6.69772 23 7.25V7.75ZM15.3333 1.5C15.3333 2.05228 14.8856 2.5 14.3333 2.5H1C0.447715 2.5 0 2.05228 0 1.5V1C0 0.447715 0.447715 0 1 0H14.3333C14.8856 0 15.3333 0.447715 15.3333 1V1.5Z" fill="#1E1E1E"/>
</svg>
