<svg width="314" height="320" viewBox="0 0 314 320" fill="none" xmlns="http://www.w3.org/2000/svg">
<path d="M160 320C252.331 320 313.664 255.189 313.664 163.712C313.664 153.237 312.576 145.152 311.061 137.088H160.021V192.085H250.837C247.125 215.445 223.339 261.056 160.021 261.056C105.472 261.056 60.928 215.872 60.928 160C60.928 104.128 105.451 58.9227 160.021 58.9227C191.232 58.9227 211.968 72.2347 223.765 83.584L267.2 41.8987C239.232 15.7227 203.221 0 160 0C71.5947 0 0 71.5947 0 160C0 248.405 71.5947 320 160 320Z" fill="#1E1E1E"/>
</svg>
