<svg width="513" height="513" viewBox="0 0 513 513" fill="none" xmlns="http://www.w3.org/2000/svg">
<path d="M257.085 124.544C184.488 124.544 125.715 183.381 125.715 255.915C125.715 328.512 184.552 387.285 257.085 387.285C329.683 387.285 388.456 328.448 388.456 255.915C388.456 183.317 329.619 124.544 257.085 124.544ZM257.085 341.184C209.96 341.184 171.816 303.019 171.816 255.915C171.816 208.811 209.981 170.645 257.085 170.645C304.189 170.645 342.355 208.811 342.355 255.915C342.376 303.019 304.211 341.184 257.085 341.184Z" fill="#1E1E1E"/>
<path d="M362.557 1.62131C315.453 -0.576023 198.781 -0.469357 151.635 1.62131C110.205 3.56264 73.6613 13.568 44.2 43.0293C-5.03737 92.2666 1.25597 158.613 1.25597 255.915C1.25597 355.499 -4.2907 420.309 44.2 468.8C93.6293 518.208 160.936 511.744 257.085 511.744C355.731 511.744 389.779 511.808 424.659 498.304C472.083 479.893 507.88 437.504 511.379 361.365C513.597 314.24 513.469 197.589 511.379 150.443C507.155 60.5653 458.92 6.05864 362.557 1.62131ZM437.117 436.224C404.84 468.501 360.061 465.621 256.467 465.621C149.8 465.621 107.027 467.2 75.816 435.904C39.8693 400.128 46.376 342.677 46.376 255.573C46.376 137.707 34.28 52.8213 152.573 46.7626C179.752 45.8026 187.752 45.4826 256.168 45.4826L257.128 46.1226C370.813 46.1226 460.008 34.2186 465.363 152.491C466.579 179.477 466.856 187.584 466.856 255.893C466.835 361.323 468.84 404.352 437.117 436.224Z" fill="#1E1E1E"/>
<path d="M393.661 150.059C410.616 150.059 424.36 136.314 424.36 119.36C424.36 102.406 410.616 88.6613 393.661 88.6613C376.707 88.6613 362.963 102.406 362.963 119.36C362.963 136.314 376.707 150.059 393.661 150.059Z" fill="#1E1E1E"/>
</svg>
